# Blender 3.5.1
# www.blender.org
mtllib Broken_Crate.mtl
o Cube
v 1.000000 3.000000 -1.000000
v 1.000000 1.000000 -1.000000
v 1.000000 3.000000 1.000000
v 1.000000 1.000000 1.000000
v -1.000000 3.000000 -1.000000
v -1.000000 1.000000 -1.000000
v -1.000000 3.000000 1.000000
v -1.000000 1.000000 1.000000
v 0.750254 3.000000 -0.750254
v -0.750254 3.000000 -0.750254
v -0.750254 3.000000 0.750254
v 0.750254 3.000000 0.750254
v 0.750254 1.249746 1.000000
v 0.750254 2.750254 1.000000
v -0.750254 2.750254 1.000000
v -0.750254 1.249746 1.000000
v -1.000000 1.249746 0.750254
v -1.000000 2.750254 0.750254
v -1.000000 2.750254 -0.750254
v -1.000000 1.249746 -0.750254
v -0.750254 1.000000 -0.750254
v 0.750254 1.000000 -0.750254
v 0.750254 1.000000 0.750254
v -0.750254 1.000000 0.750254
v 1.000000 1.249746 -0.750254
v 1.000000 2.750254 -0.750254
v 1.000000 2.750254 0.750254
v 1.000000 1.249746 0.750254
v -0.750254 1.249746 -1.000000
v -0.750254 2.750254 -1.000000
v 0.750254 2.750254 -1.000000
v 0.750254 1.249746 -1.000000
v 0.750254 3.000000 -0.750254
v -0.750254 3.000000 -0.750254
v -0.750254 3.000000 0.750254
v 0.750254 3.000000 0.750254
v 0.750254 1.249746 1.000000
v 0.750254 2.750254 1.000000
v -0.750254 2.750254 1.000000
v -0.750254 1.249746 1.000000
v -1.000000 1.249746 0.750254
v -1.000000 2.750254 0.750254
v -1.000000 2.750254 -0.750254
v -1.000000 1.249746 -0.750254
v -0.750254 1.000000 -0.750254
v 0.750254 1.000000 -0.750254
v 0.750254 1.000000 0.750254
v -0.750254 1.000000 0.750254
v 1.000000 1.249746 -0.750254
v 1.000000 2.750254 -0.750254
v 1.000000 2.750254 0.750254
v 1.000000 1.249746 0.750254
v -0.750254 1.249746 -1.000000
v -0.750254 2.750254 -1.000000
v 0.750254 2.750254 -1.000000
v 0.750254 1.249746 -1.000000
v 0.750254 2.788239 -0.750254
v -0.750254 2.788239 -0.750254
v -0.750254 2.788239 0.750254
v 0.750254 2.788239 0.750254
v 0.750254 1.249746 0.788239
v 0.750254 2.750254 0.788239
v -0.750254 2.750254 0.788239
v -0.750254 1.249746 0.788239
v -0.788239 1.249746 0.750254
v -0.788239 2.750254 0.750254
v -0.788239 2.750254 -0.750254
v -0.788239 1.249746 -0.750254
v -0.750254 1.211761 -0.750254
v 0.750254 1.211761 -0.750254
v 0.750254 1.211761 0.750254
v -0.750254 1.211761 0.750254
v 0.788239 1.249746 -0.750254
v 0.788239 2.750254 -0.750254
v 0.788239 2.750254 0.750254
v 0.788239 1.249746 0.750254
v -0.750254 1.249746 -0.788239
v -0.750254 2.750254 -0.788239
v 0.750254 2.750254 -0.788239
v 0.750254 1.249746 -0.788239
v 1.000000 2.471559 -1.000000
v 1.000000 2.157186 -1.000000
v 1.000000 1.842814 -1.000000
v 1.000000 1.528441 -1.000000
v -1.000000 1.528441 1.000000
v -1.000000 1.842814 1.000000
v -1.000000 2.157186 1.000000
v -1.000000 2.471559 1.000000
v 1.000000 2.471559 1.000000
v 1.000000 2.157186 1.000000
v 1.000000 1.842814 1.000000
v 1.000000 1.528441 1.000000
v -1.000000 2.471559 -1.000000
v -1.000000 2.157186 -1.000000
v -1.000000 1.842814 -1.000000
v -1.000000 1.528441 -1.000000
v 0.750254 2.471559 1.000000
v 0.750254 2.157186 1.000000
v 0.750254 1.842814 1.000000
v 0.750254 1.528441 1.000000
v -0.750254 1.528441 1.000000
v -0.750254 1.842814 1.000000
v -0.750254 2.157186 1.000000
v -0.750254 2.471559 1.000000
v -1.000000 1.528441 0.750254
v -1.000000 1.842814 0.750254
v -1.000000 2.157186 0.750254
v -1.000000 2.471559 0.750254
v -1.000000 2.471559 -0.750254
v -1.000000 2.157186 -0.750254
v -1.000000 1.842814 -0.750254
v -1.000000 1.528441 -0.750254
v 1.000000 2.471559 -0.750254
v 1.000000 2.157186 -0.750254
v 1.000000 1.842814 -0.750254
v 1.000000 1.528441 -0.750254
v 1.000000 2.471559 0.750254
v 1.000000 2.157186 0.750254
v 1.000000 1.842814 0.750254
v 1.000000 1.528441 0.750254
v -0.750254 2.471559 -1.000000
v -0.750254 2.157186 -1.000000
v -0.750254 1.842814 -1.000000
v -0.750254 1.528441 -1.000000
v 0.750254 2.471559 -1.000000
v 0.750254 2.157186 -1.000000
v 0.750254 1.842814 -1.000000
v 0.750254 1.528441 -1.000000
v 0.750254 2.471559 1.000000
v 0.750254 2.157186 1.000000
v 0.750254 1.842814 1.000000
v 0.750254 1.528441 1.000000
v -0.750254 1.528441 1.000000
v -0.750254 1.842814 1.000000
v -0.750254 2.157186 1.000000
v -0.750254 2.471559 1.000000
v -1.000000 1.528441 0.750254
v -1.000000 1.842814 0.750254
v -1.000000 2.157186 0.750254
v -1.000000 2.471559 0.750254
v -1.000000 2.471559 -0.750254
v -1.000000 2.157186 -0.750254
v -1.000000 1.842814 -0.750254
v -1.000000 1.528441 -0.750254
v 1.000000 2.471559 -0.750254
v 1.000000 2.157186 -0.750254
v 1.000000 1.842814 -0.750254
v 1.000000 1.528441 -0.750254
v 1.000000 2.471559 0.750254
v 1.000000 2.157186 0.750254
v 1.000000 1.842814 0.750254
v 1.000000 1.528441 0.750254
v -0.750254 2.471559 -1.000000
v -0.750254 2.157186 -1.000000
v -0.750254 1.842814 -1.000000
v -0.750254 1.528441 -1.000000
v 0.750254 2.471559 -1.000000
v 0.750254 2.157186 -1.000000
v 0.750254 1.842814 -1.000000
v 0.750254 1.528441 -1.000000
v 0.750254 2.471559 0.788239
v 0.750254 2.157186 0.788239
v 0.750254 1.842814 0.788239
v 0.750254 1.528441 0.788239
v -0.750254 1.528441 0.788239
v -0.750254 1.842814 0.788239
v -0.750254 2.157186 0.788239
v -0.750254 2.471559 0.788239
v -0.788239 1.528441 0.750254
v -0.788239 1.842814 0.750254
v -0.788239 2.157186 0.750254
v -0.788239 2.471559 0.750254
v -0.788239 2.471559 -0.750254
v -0.788239 2.157186 -0.750254
v -0.788239 1.842814 -0.750254
v -0.788239 1.528441 -0.750254
v 0.788239 2.471559 -0.750254
v 0.788239 2.157186 -0.750254
v 0.788239 1.842814 -0.750254
v 0.788239 1.528441 -0.750254
v 0.788239 2.471559 0.750254
v 0.788239 2.157186 0.750254
v 0.788239 1.842814 0.750254
v 0.788239 1.528441 0.750254
v -0.750254 2.471559 -0.788239
v -0.750254 2.157186 -0.788239
v -0.750254 1.842814 -0.788239
v -0.750254 1.528441 -0.788239
v 0.750254 2.471559 -0.788239
v 0.750254 2.157186 -0.788239
v 0.750254 1.842814 -0.788239
v 0.750254 1.528441 -0.788239
v -0.750254 2.471559 -0.788239
v -0.750254 2.157186 -0.788239
v -0.750254 1.842814 -0.788239
v -0.750254 1.528441 -0.788239
v 0.750254 2.471559 -0.788239
v 0.750254 2.157186 -0.788239
v 0.750254 1.842814 -0.788239
v 0.750254 1.528441 -0.788239
v 0.750254 2.471559 0.870933
v 0.750254 2.157186 0.870933
v 0.750254 1.842814 0.870933
v 0.750254 1.528441 0.870933
v -0.750254 1.528441 0.870933
v -0.750254 1.842814 0.870933
v -0.750254 2.157186 0.870933
v -0.750254 2.471559 0.870933
v -0.870933 1.528441 0.750254
v -0.870933 1.842814 0.750254
v -0.870933 2.157186 0.750254
v -0.870933 2.471559 0.750254
v -0.870933 2.471559 -0.750254
v -0.870933 2.157186 -0.750254
v -0.870933 1.842814 -0.750254
v -0.870933 1.528441 -0.750254
v 0.870933 2.471559 -0.750254
v 0.870933 2.157186 -0.750254
v 0.870933 1.842814 -0.750254
v 0.870933 1.528441 -0.750254
v 0.870933 2.471559 0.750254
v 0.870933 2.157186 0.750254
v 0.870933 1.842814 0.750254
v 0.870933 1.528441 0.750254
v -0.750254 2.471559 -0.870933
v -0.750254 2.157186 -0.870933
v -0.750254 1.842814 -0.870933
v -0.750254 1.528441 -0.870933
v 0.750254 2.471559 -0.870933
v 0.750254 2.157186 -0.870933
v 0.750254 1.842814 -0.870933
v 0.750254 1.528441 -0.870933
v 0.462639 1.000000 -1.000000
v 0.154213 1.000000 -1.000000
v -0.154213 1.000000 -1.000000
v -0.462639 1.000000 -1.000000
v 0.462639 3.000000 1.000000
v 0.154213 3.000000 1.000000
v -0.154213 3.000000 1.000000
v -0.462639 3.000000 1.000000
v -0.462639 1.000000 1.000000
v -0.154213 1.000000 1.000000
v 0.154213 1.000000 1.000000
v 0.462639 1.000000 1.000000
v -0.462639 3.000000 -1.000000
v -0.154213 3.000000 -1.000000
v 0.154213 3.000000 -1.000000
v 0.462639 3.000000 -1.000000
v -0.462639 3.000000 -0.750254
v -0.154213 3.000000 -0.750254
v 0.154213 3.000000 -0.750254
v 0.462639 3.000000 -0.750254
v 0.462639 3.000000 0.750254
v 0.154213 3.000000 0.750254
v -0.154213 3.000000 0.750254
v -0.462639 3.000000 0.750254
v -0.462639 1.249746 1.000000
v -0.154213 1.249746 1.000000
v 0.154213 1.249746 1.000000
v 0.462639 1.249746 1.000000
v 0.462639 2.750254 1.000000
v 0.154213 2.750254 1.000000
v -0.154213 2.750254 1.000000
v -0.462639 2.750254 1.000000
v 0.462639 1.000000 -0.750254
v 0.154213 1.000000 -0.750254
v -0.154213 1.000000 -0.750254
v -0.462639 1.000000 -0.750254
v -0.462639 1.000000 0.750254
v -0.154213 1.000000 0.750254
v 0.154213 1.000000 0.750254
v 0.462639 1.000000 0.750254
v 0.462639 1.249746 -1.000000
v 0.154213 1.249746 -1.000000
v -0.154213 1.249746 -1.000000
v -0.462639 1.249746 -1.000000
v -0.462639 2.750254 -1.000000
v -0.154213 2.750254 -1.000000
v 0.154213 2.750254 -1.000000
v 0.462639 2.750254 -1.000000
v -0.462639 3.000000 -0.750254
v -0.154213 3.000000 -0.750254
v 0.154213 3.000000 -0.750254
v 0.462639 3.000000 -0.750254
v 0.462639 3.000000 0.750254
v 0.154213 3.000000 0.750254
v -0.154213 3.000000 0.750254
v -0.462639 3.000000 0.750254
v -0.462639 1.249746 1.000000
v -0.154213 1.249746 1.000000
v 0.154213 1.249746 1.000000
v 0.462639 1.249746 1.000000
v 0.462639 2.750254 1.000000
v 0.154213 2.750254 1.000000
v -0.154213 2.750254 1.000000
v -0.462639 2.750254 1.000000
v 0.462639 1.000000 -0.750254
v 0.154213 1.000000 -0.750254
v -0.154213 1.000000 -0.750254
v -0.462639 1.000000 -0.750254
v -0.462639 1.000000 0.750254
v -0.154213 1.000000 0.750254
v 0.154213 1.000000 0.750254
v 0.462639 1.000000 0.750254
v 0.462639 1.249746 -1.000000
v 0.154213 1.249746 -1.000000
v -0.154213 1.249746 -1.000000
v -0.462639 1.249746 -1.000000
v -0.462639 2.750254 -1.000000
v -0.154213 2.750254 -1.000000
v 0.154213 2.750254 -1.000000
v 0.462639 2.750254 -1.000000
v -0.462639 2.788239 -0.750254
v -0.154213 2.788239 -0.750254
v 0.154213 2.788239 -0.750254
v 0.462639 2.788239 -0.750254
v 0.462639 2.788239 0.750254
v 0.154213 2.788239 0.750254
v -0.154213 2.788239 0.750254
v -0.462639 2.788239 0.750254
v -0.462639 1.249746 0.788239
v -0.154213 1.249746 0.788239
v 0.154213 1.249746 0.788239
v 0.462639 1.249746 0.788239
v 0.462639 2.750254 0.788239
v 0.154213 2.750254 0.788239
v -0.154213 2.750254 0.788239
v -0.462639 2.750254 0.788239
v 0.462639 1.211761 -0.750254
v 0.154213 1.211761 -0.750254
v -0.154213 1.211761 -0.750254
v -0.462639 1.211761 -0.750254
v -0.462639 1.211761 0.750254
v -0.154213 1.211761 0.750254
v 0.154213 1.211761 0.750254
v 0.462639 1.211761 0.750254
v 0.462639 1.249746 -0.788239
v 0.154213 1.249746 -0.788239
v -0.154213 1.249746 -0.788239
v -0.462639 1.249746 -0.788239
v -0.462639 2.750254 -0.788239
v -0.154213 2.750254 -0.788239
v 0.154213 2.750254 -0.788239
v 0.462639 2.750254 -0.788239
v -0.462639 1.528441 -0.788239
v -0.154213 1.528441 -0.788239
v 0.154213 1.528441 -0.788239
v 0.462639 1.528441 -0.788239
v -0.462639 1.842814 -0.788239
v -0.154213 1.842814 -0.788239
v 0.154213 1.842814 -0.788239
v 0.462639 1.842814 -0.788239
v -0.462639 2.157186 -0.788239
v -0.154213 2.157186 -0.788239
v 0.154213 2.157186 -0.788239
v 0.462639 2.157186 -0.788239
v -0.462639 2.471559 -0.788239
v -0.154213 2.471559 -0.788239
v 0.154213 2.471559 -0.788239
v 0.462639 2.471559 -0.788239
v 0.462639 1.528441 0.788239
v 0.154213 1.528441 0.788239
v -0.154213 1.528441 0.788239
v -0.462639 1.528441 0.788239
v 0.462639 1.842814 0.788239
v 0.154213 1.842814 0.788239
v -0.154213 1.842814 0.788239
v -0.462639 1.842814 0.788239
v 0.462639 2.157186 0.788239
v 0.154213 2.157186 0.788239
v -0.154213 2.157186 0.788239
v -0.462639 2.157186 0.788239
v 0.462639 2.471559 0.788239
v 0.154213 2.471559 0.788239
v -0.154213 2.471559 0.788239
v -0.462639 2.471559 0.788239
v -0.462639 1.528441 -0.788239
v -0.154213 1.528441 -0.788239
v 0.154213 1.528441 -0.788239
v 0.462639 1.528441 -0.788239
v -0.462639 1.842814 -0.788239
v -0.154213 1.842814 -0.788239
v 0.154213 1.842814 -0.788239
v 0.462639 1.842814 -0.788239
v -0.462639 2.157186 -0.788239
v -0.154213 2.157186 -0.788239
v 0.154213 2.157186 -0.788239
v 0.462639 2.157186 -0.788239
v -0.462639 2.471559 -0.788239
v -0.154213 2.471559 -0.788239
v 0.154213 2.471559 -0.788239
v 0.462639 2.471559 -0.788239
v 0.462639 1.528441 0.870933
v 0.154213 1.528441 0.870933
v -0.154213 1.528441 0.870933
v -0.462639 1.528441 0.870933
v 0.462639 1.842814 0.870933
v 0.154213 1.842814 0.870933
v -0.154213 1.842814 0.870933
v -0.462639 1.842814 0.870933
v 0.462639 2.157186 0.870933
v 0.154213 2.157186 0.870933
v -0.154213 2.157186 0.870933
v -0.462639 2.157186 0.870933
v 0.462639 2.471559 0.870933
v 0.154213 2.471559 0.870933
v -0.154213 2.471559 0.870933
v -0.462639 2.471559 0.870933
v -0.462639 1.528441 -0.870933
v -0.154213 1.528441 -0.870933
v 0.154213 1.528441 -0.870933
v 0.462639 1.528441 -0.870933
v -0.462639 1.842814 -0.870933
v -0.154213 1.842814 -0.870933
v 0.154213 1.842814 -0.870933
v 0.462639 1.842814 -0.870933
v -0.462639 2.157186 -0.870933
v -0.154213 2.157186 -0.870933
v 0.154213 2.157186 -0.870933
v 0.462639 2.157186 -0.870933
v -0.462639 2.471559 -0.870933
v -0.154213 2.471559 -0.870933
v 0.154213 2.471559 -0.870933
v 0.462639 2.471559 -0.870933
v -0.462639 2.788239 -0.750254
v -0.154213 2.788239 -0.750254
v 0.154213 2.788239 -0.750254
v 0.462639 2.788239 -0.750254
v 0.462639 2.788239 0.750254
v 0.154213 2.788239 0.750254
v -0.154213 2.788239 0.750254
v -0.462639 2.788239 0.750254
v 0.462639 1.211761 -0.750254
v 0.154213 1.211761 -0.750254
v -0.154213 1.211761 -0.750254
v -0.462639 1.211761 -0.750254
v -0.462639 1.211761 0.750254
v -0.154213 1.211761 0.750254
v 0.154213 1.211761 0.750254
v 0.462639 1.211761 0.750254
v 0.462639 1.111200 -0.750254
v 0.154213 1.111200 -0.750254
v -0.154213 1.111200 -0.750254
v -0.462639 1.111200 -0.750254
v -0.462639 1.111200 0.750254
v -0.154213 1.111200 0.750254
v 0.154213 1.111200 0.750254
v 0.462639 1.111200 0.750254
v -0.462639 2.823904 -0.750254
v -0.154213 2.823904 -0.750254
v 0.154213 2.823904 -0.750254
v 0.462639 2.823904 -0.750254
v 0.462639 2.823904 0.750254
v 0.154213 2.823904 0.750254
v -0.154213 2.823904 0.750254
v -0.462639 2.823904 0.750254
v -0.462639 2.875085 -0.750254
v -0.154213 2.875085 -0.750254
v 0.154213 2.875085 -0.750254
v 0.462639 2.875085 -0.750254
v 0.462639 2.875085 0.750254
v 0.154213 2.875085 0.750254
v -0.154213 2.875085 0.750254
v -0.462639 2.875085 0.750254
v 1.000000 3.000000 0.800178
v 1.000000 2.157186 -0.948207
v 1.000000 2.471559 -0.872323
v 1.000000 2.856656 0.856656
v 0.908393 2.157186 -0.750254
v 0.817160 3.000000 0.817160
v 0.788239 2.056223 -0.750254
v 0.782454 3.000000 1.000000
v 0.885352 2.885352 1.000000
v 1.000000 1.942972 -1.000000
v 1.000000 2.927540 1.000000
v 1.000000 2.909722 0.154657
v 1.000000 2.934376 -0.208582
v 1.000000 2.824273 -0.439550
v 0.967865 2.471559 -1.000000
v 0.967865 2.157186 -1.000000
v 0.967865 2.157186 -0.948207
v 0.967865 2.471559 -0.872323
v 0.967865 1.942972 -1.000000
v 0.967865 2.909722 0.154657
v 0.967865 2.934376 -0.208582
v 0.967865 2.824273 -0.439550
v 0.788239 2.044748 0.750254
v 0.870933 2.157186 0.134701
v 0.870933 2.157186 0.671458
v 0.788239 1.842814 0.386442
v 0.870933 1.842814 0.380122
v 0.870933 2.281612 0.037526
v 0.870933 2.371639 0.547758
v 0.870933 1.842814 -0.453824
v 0.870933 1.842814 -0.271563
v 0.788239 1.842814 -0.454054
v 0.788239 1.842814 -0.281776
v 0.788239 1.980596 -0.397983
v 0.870933 1.724494 -0.171861
v 0.659915 2.044748 0.750254
v 0.659915 1.842814 0.750254
v 0.659915 1.842814 0.386442
v 0.742610 2.157186 0.134701
v 0.742610 2.157186 0.671458
v 0.742610 2.281612 0.037526
v 0.742610 2.371639 0.547758
v 0.742610 1.842814 -0.453824
v 0.742610 1.842814 -0.271563
v 0.659915 1.842814 -0.454054
v 0.659915 1.842814 -0.281776
v 0.659915 1.980596 -0.397983
v 0.742610 1.724494 -0.171861
v 0.663845 2.044748 0.750254
v 0.663845 1.842814 0.750254
v 0.663845 1.842814 0.386442
v 0.746540 2.157186 0.134701
v 0.746540 2.157186 0.671458
v 0.746540 2.281612 0.037526
v 0.746540 2.371639 0.547758
v 0.746540 1.842814 -0.453824
v 0.746540 1.842814 -0.271563
v 0.663845 1.842814 -0.454054
v 0.663845 1.842814 -0.281776
v 0.663845 1.980596 -0.397983
v 0.746540 1.724494 -0.171861
v 0.662463 2.044748 0.750254
v 0.662463 1.842814 0.750254
v 0.662463 1.842814 0.386442
v 0.745158 2.157186 0.134701
v 0.745158 2.157186 0.671458
v 0.745158 2.281612 0.037526
v 0.745158 2.371639 0.547758
v 0.745158 1.842814 -0.453824
v 0.745158 1.842814 -0.271563
v 0.662463 1.842814 -0.454054
v 0.662463 1.842814 -0.281776
v 0.662463 1.980596 -0.397983
v 0.745158 1.724494 -0.171861
v 0.698479 2.044748 0.750254
v 0.698479 1.842814 0.750254
v 0.698479 1.842814 0.386442
v 0.781174 2.157186 0.134701
v 0.781174 2.157186 0.671458
v 0.781174 2.281612 0.037526
v 0.781174 2.371639 0.547758
v 0.781174 1.842814 -0.453824
v 0.781174 1.842814 -0.271563
v 0.698479 1.842814 -0.454054
v 0.698479 1.842814 -0.281776
v 0.698479 1.980596 -0.397983
v 0.781174 1.724494 -0.171861
v 1.000000 2.989770 0.800178
v 1.000000 2.989770 1.000000
v 0.817160 2.989770 0.817160
v 1.000000 3.000000 0.982915
v 0.782454 3.000000 0.982915
v 0.885352 2.885352 0.982915
v 0.983613 3.000000 1.000000
v 0.983613 2.856656 0.856656
v 0.983613 2.927540 1.000000
v 0.788239 1.249746 0.033953
v 0.788239 1.249746 -0.182065
v 0.788239 1.377146 -0.135033
v 1.000000 1.122875 0.202506
v 1.000000 1.190261 -0.195256
v 1.000000 1.155057 0.012540
v 1.000000 1.215017 -0.113567
v 0.775224 1.249746 0.033953
v 0.775224 1.249746 -0.182065
v 0.775224 1.377146 -0.135033
v 0.986985 1.155057 0.012540
v 0.986985 1.190261 -0.195256
v 0.986985 1.215017 -0.113567
v 0.775224 1.249746 0.033953
v 0.775224 1.249746 -0.182065
v 0.775224 1.377146 -0.135033
v 0.986985 1.155057 0.012540
v 0.986985 1.190261 -0.195256
v 0.986985 1.215017 -0.113567
v 1.000000 1.189612 0.490632
v 1.000000 1.217051 0.609097
v 1.000000 1.118890 0.473548
v 1.000000 1.152971 0.769291
v 0.966594 1.189612 0.490632
v 0.966594 1.217051 0.609097
v 0.966594 1.118890 0.473548
v 0.966594 1.152971 0.769291
v 0.858762 2.858762 -1.000000
v 0.788993 2.788993 -1.000000
v 0.944457 2.823881 -1.000000
v 0.621426 2.954936 -1.000000
v 0.585926 2.801542 -1.000000
v 0.750254 1.249746 -0.992095
v -0.462639 2.651674 -0.788239
v 0.438691 2.157186 -0.870933
v -0.341199 1.249746 -0.788239
v -0.154213 2.737042 -0.788239
v 0.154213 2.145221 -0.788239
v -0.154213 2.360112 -0.870933
v -0.154213 1.288185 -0.788239
v 0.462639 2.126771 -0.788239
v -0.418439 2.750254 -0.788239
v 0.154213 2.363101 -0.870933
v 0.750254 1.337907 -0.788239
v -0.839014 1.842814 -1.000000
v -0.106402 2.750254 -0.788239
v 0.038801 1.528441 -0.870933
v -0.750254 1.945983 -0.788239
v -0.154213 2.791438 -1.000000
v -0.191120 1.528441 -0.870933
v 0.691807 1.249746 -0.788239
v -0.079609 2.157186 -0.870933
v 0.145845 2.157186 -0.870933
v -0.154213 1.591965 -0.870933
v -0.234167 2.875401 -1.000000
v -0.370704 2.796407 -1.000000
v 0.322490 2.364612 -0.870933
v -0.564244 2.066226 -0.788239
v -0.663027 1.939432 -0.788239
v -0.543303 1.903234 -0.788239
v -0.823233 1.992811 -1.000000
v 0.028389 1.325687 -0.788239
v 0.923314 1.260002 -1.000000
v 0.805057 1.373909 -1.000000
v -0.020090 2.258733 -0.870933
v 0.045354 1.617389 -0.870933
v -0.846595 1.770097 -1.000000
v 0.251800 2.085347 -0.788239
v 1.000000 1.000000 -0.910513
v 0.750254 1.249746 -0.910513
v 0.750254 1.274630 -0.724962
v 0.750254 1.186469 -0.724962
v -0.750254 1.945983 -0.698752
v -0.750254 1.842814 -0.698752
v -0.839014 1.842814 -0.910513
v -0.750254 1.842814 -0.910513
v -0.462639 2.750254 -0.910513
v -0.154213 2.750254 -0.910513
v 0.154213 1.249746 -0.698752
v -0.154213 1.249746 -0.698752
v -0.418439 2.750254 -0.698752
v -0.154213 2.750254 -0.698752
v -0.462639 1.842814 -0.698752
v 0.154213 2.157187 -0.698752
v 0.462639 2.157187 -0.698752
v -0.191120 1.528441 -0.781447
v -0.154213 1.528441 -0.781447
v 0.145845 2.157186 -0.781447
v 0.154213 2.157186 -0.781447
v -0.154213 2.360112 -0.781447
v -0.154213 2.157186 -0.781447
v 0.154213 2.363101 -0.781447
v -0.154213 1.591965 -0.781447
v -0.154213 1.288185 -0.698752
v -0.154213 2.791438 -0.910513
v 0.858762 2.858762 -0.910513
v 0.788993 2.788993 -0.910513
v 0.944457 2.823881 -0.910513
v 0.621426 2.954936 -0.910513
v 0.585926 2.801542 -0.910513
v 0.750254 1.186469 -0.928818
v 0.438691 2.157186 -0.781447
v -0.341199 1.249746 -0.698752
v -0.154213 2.737042 -0.698752
v 0.154213 2.145221 -0.698752
v 0.462639 2.126772 -0.698752
v -1.000000 1.842814 -0.910513
v 0.038801 1.528441 -0.781447
v 0.691807 1.186469 -0.724962
v -0.079609 2.157186 -0.781447
v -0.234167 2.875401 -0.910513
v -0.370704 2.796407 -0.910513
v 0.322490 2.364612 -0.781447
v -0.564244 2.066227 -0.698752
v -0.663027 1.939432 -0.698752
v -0.543303 1.903234 -0.698752
v -0.823233 1.992811 -0.910513
v -0.462639 2.651674 -0.698752
v 0.028389 1.325687 -0.698752
v 0.923314 1.260002 -0.910513
v 0.805057 1.373909 -0.910513
v -0.020090 2.258733 -0.781447
v 0.045354 1.617389 -0.781447
v -0.846595 1.770097 -0.910513
v 0.251800 2.085347 -0.698752
v -0.870933 1.528441 -0.336069
v -0.870933 1.528441 -0.571793
v -0.870933 2.471559 0.461952
v -0.870933 2.471559 0.314515
v -0.870933 2.157186 0.654501
v -0.870933 2.157186 0.605777
v -0.870933 2.157186 -0.235380
v -0.870933 2.157186 -0.523305
v -0.788239 2.471559 0.476119
v -0.788239 2.471559 0.302609
v -0.870933 2.358626 0.402306
v -0.870933 2.294848 -0.460925
v -0.870933 2.255881 0.708461
v -0.870933 2.209542 0.588004
v -0.788239 2.021324 -0.066439
v -0.788239 1.989547 -0.403559
v -0.788239 2.074498 -0.569492
v -1.000000 2.917922 -0.710097
v -1.000000 2.799756 -0.486519
v -1.000000 2.812730 -0.183351
v -1.000000 2.932494 0.408790
v -0.788239 2.626025 0.182531
v -0.788239 2.558754 0.522115
v -0.788239 1.385195 -0.337468
v -0.788239 1.455204 -0.420629
v -0.788239 1.395290 -0.564214
v -0.870933 1.773952 0.288437
v -0.870933 1.715535 0.452360
v -0.870933 1.563782 0.409617
v -0.870933 1.632301 0.308669
v -0.870933 1.698190 0.326066
v -0.870933 1.769501 0.190940
v -0.870933 1.673170 -0.490287
v -0.870933 1.587300 -0.336006
v -0.870933 1.570082 -0.581686
v -0.805625 1.528441 -0.336069
v -0.805625 1.528441 -0.571793
v -0.805625 2.471559 0.461952
v -0.805625 2.471559 0.314515
v -0.805625 2.157186 0.654501
v -0.805625 2.157186 0.605777
v -0.805625 2.157186 -0.235380
v -0.805625 2.157186 -0.523305
v -0.722931 2.471559 0.476119
v -0.722931 2.471559 0.302609
v -0.805625 2.358626 0.402306
v -0.805625 2.294848 -0.460925
v -0.805625 2.255881 0.708461
v -0.805625 2.209542 0.588004
v -0.934692 2.917922 -0.710097
v -0.934692 2.799756 -0.486519
v -0.934692 2.812730 -0.183351
v -0.934692 2.932494 0.408790
v -0.722931 2.626025 0.182531
v -0.722931 2.558754 0.522115
v -0.805625 1.773952 0.288437
v -0.805625 1.715535 0.452360
v -0.805625 1.563782 0.409617
v -0.805625 1.632301 0.308669
v -0.805625 1.698190 0.326066
v -0.805625 1.769501 0.190940
v -0.805625 1.673170 -0.490287
v -0.805625 1.587300 -0.336006
v -0.805625 1.570082 -0.581686
v -0.788239 2.157186 0.750254
v -0.788239 2.157186 -0.750254
v -0.788239 2.021324 -0.066439
v -0.788239 1.989547 -0.403559
v -0.788239 2.074498 -0.569492
v -0.812780 2.157186 0.750254
v -0.812780 2.157186 -0.750254
v -0.812780 2.021324 -0.066439
v -0.812780 1.989547 -0.403559
v -0.812780 2.074498 -0.569492
v -0.788239 1.400012 0.750254
v -0.788239 1.255199 0.706468
v -0.788239 1.249746 0.709373
v -0.884035 1.249746 0.750254
v -0.788239 1.388569 0.635423
v -0.788239 1.411688 0.719801
v -0.945418 1.249746 0.633731
v -0.944808 1.361703 0.750254
v -0.975699 1.280339 0.750254
v -0.788239 1.249746 0.709373
v -0.788239 1.249746 0.750254
v -0.884035 1.249746 0.750254
v -0.788239 1.255199 0.706468
v -0.788239 1.400012 0.750254
v -0.788239 1.388569 0.635423
v -0.788239 1.411688 0.719801
v -0.945418 1.249746 0.633731
v -0.944808 1.361703 0.750254
v -0.975699 1.280339 0.750254
v -0.779993 1.241500 0.717619
v -0.779993 1.241500 0.758500
v -0.875789 1.241500 0.758500
v -0.779993 1.246953 0.714714
v -0.779993 1.391766 0.758500
v -0.779993 1.380324 0.643669
v -0.779993 1.403443 0.728046
v -0.937173 1.241500 0.641976
v -0.936563 1.353457 0.758500
v -0.967453 1.272093 0.758500
v 0.462639 2.669924 0.788239
v 0.462639 2.563395 0.788239
v -0.462639 2.748300 0.788239
v -0.889288 1.842814 1.000000
v -0.766894 1.842814 1.000000
v -0.750254 2.616549 0.788239
v 0.154213 1.481666 0.788239
v 0.154213 1.421147 0.788239
v -0.807922 2.807922 1.000000
v 0.154213 1.971562 0.788239
v 0.154213 1.949721 0.788239
v 0.351955 1.528441 0.870933
v 0.158972 1.528441 0.870933
v 0.154213 2.638058 0.788239
v 0.154213 2.219815 0.870933
v 0.119790 2.157186 0.870933
v -0.073704 2.157186 0.870933
v -0.530852 2.532476 0.788239
v -0.674699 2.598646 0.788239
v -0.882719 2.659148 1.000000
v 0.436620 2.670242 0.788239
v 0.332178 1.920868 0.788239
v -0.909996 1.888229 1.000000
v -0.781098 1.936148 1.000000
v 0.412464 1.360379 0.788239
v 0.269196 1.437569 0.788239
v -0.069532 2.330168 0.870933
v -0.755448 2.912102 1.000000
v 0.580065 2.534817 0.788239
v -0.851443 1.759580 1.000000
v -0.772408 1.791429 1.000000
v 0.053552 2.000013 0.788239
v -0.068927 1.985673 0.788239
v 0.024080 1.402556 0.788239
v 0.324303 1.628928 0.870933
v -0.462639 2.750254 0.938599
v -0.750254 2.750254 0.938599
v -0.750254 2.471559 0.938599
v -0.807922 2.807922 0.938599
v -0.462639 2.750254 0.726838
v -0.750254 2.750254 0.726838
v -0.750254 2.616549 0.726838
v -1.000000 2.471559 0.938599
v 0.462639 1.528441 0.726838
v 0.154213 1.528441 0.726838
v -0.154213 2.157186 0.726838
v -0.154213 1.842814 0.726838
v 0.462639 1.249746 0.726838
v 0.462639 2.669924 0.726838
v 0.462639 2.563395 0.726838
v -0.462639 2.748300 0.726838
v -0.889288 1.842814 0.938599
v -0.766894 1.842814 0.938599
v 0.154213 1.481666 0.726838
v 0.154213 1.421147 0.726838
v 0.154213 1.971562 0.726838
v 0.154213 1.949721 0.726838
v 0.351955 1.528441 0.809533
v 0.158972 1.528441 0.809533
v 0.119790 2.157186 0.809533
v -0.073704 2.157186 0.809533
v -0.530852 2.532476 0.726838
v -0.674699 2.598646 0.726838
v -0.882719 2.659148 0.938599
v 0.154213 2.638058 0.726838
v 0.436620 2.670242 0.726838
v 0.332178 1.920868 0.726838
v -0.909996 1.888229 0.938599
v -0.781098 1.936148 0.938599
v 0.412464 1.360379 0.726838
v 0.269196 1.437569 0.726838
v -0.069532 2.330168 0.809533
v 0.154213 2.219815 0.809533
v -0.755448 2.912102 0.938599
v 0.580065 2.534817 0.726838
v -0.851443 1.759580 0.938599
v -0.772408 1.791429 0.938599
v 0.053552 2.000013 0.726838
v -0.068927 1.985673 0.726838
v 0.024080 1.402556 0.726838
v 0.324303 1.628928 0.809533
v -0.154213 2.875085 -0.681517
v 0.462639 2.823904 -0.097607
v 0.462639 2.823904 0.019371
v -0.750254 2.788239 0.585352
v -0.750254 2.788239 0.378055
v 0.462639 2.875085 -0.097572
v 0.462639 2.875085 0.061470
v -0.912801 3.000000 0.658347
v -0.795573 3.000000 0.305900
v 0.313419 2.875085 0.038370
v 0.389603 2.875085 -0.175179
v 0.357227 2.875085 0.114564
v -0.097313 2.788239 0.198825
v -0.003863 2.788239 0.125519
v 0.079050 2.788239 0.184176
v -0.001493 2.788239 0.326726
v -0.074825 2.788239 0.318190
v -0.418544 2.875085 -0.492352
v -0.392083 2.875085 -0.695044
v -0.572500 2.788239 0.476963
v -1.000000 2.944082 1.000000
v -0.750254 2.944082 0.750254
v -0.750254 2.732321 0.585352
v -0.750254 2.732321 0.378055
v 0.462639 2.819167 -0.097572
v 0.462639 2.819167 0.061470
v -0.912801 2.944082 0.658347
v -0.795573 2.944082 0.305900
v 0.313419 2.819167 0.038370
v 0.389603 2.819167 -0.175179
v 0.357227 2.819167 0.114564
v -0.097313 2.732321 0.198825
v -0.003863 2.732321 0.125519
v 0.079050 2.732321 0.184176
v -0.001493 2.732321 0.326726
v -0.074825 2.732321 0.318190
v -0.418544 2.819167 -0.492352
v -0.392083 2.819167 -0.695044
v -0.154213 2.819167 -0.681517
v -0.572500 2.732321 0.476963
v 0.657294 2.788239 -0.750254
v 0.694094 2.788239 -0.750254
v 0.633013 2.788239 -0.550449
v 0.633757 2.788239 -0.698436
v 0.707377 2.788239 -0.724932
v 0.710393 2.788239 -0.539369
v 0.706460 2.955134 -0.750254
v 0.657294 2.762961 -0.750254
v 0.694094 2.762961 -0.750254
v 0.633013 2.762961 -0.550449
v 0.633757 2.762961 -0.698436
v 0.707377 2.762961 -0.724932
v 0.710393 2.762961 -0.539369
v 0.657294 2.788239 -0.755508
v 0.694094 2.788239 -0.755508
v 0.706460 2.955134 -0.755508
vn -0.0000 1.0000 -0.0000
vn 0.0925 -0.0000 0.9957
vn -0.0000 -0.0000 1.0000
vn -1.0000 -0.0000 -0.0000
vn -0.0000 -1.0000 -0.0000
vn 1.0000 -0.0000 -0.0000
vn -0.0000 -0.0000 -1.0000
vn -0.0000 0.8964 -0.4433
vn -0.8627 0.5057 -0.0000
vn 0.0097 -1.0000 -0.0000
vn -0.6033 -0.7975 -0.0000
vn -0.9592 -0.2829 -0.0000
vn 0.9148 -0.4038 -0.0000
vn 0.7442 0.6679 -0.0000
vn -0.0000 -0.9027 0.4303
vn -0.0000 0.2346 -0.9721
vn -0.0000 0.2350 -0.9720
vn -0.0000 0.9898 -0.1423
vn -0.0000 -0.9977 -0.0677
vn -0.0000 0.9848 -0.1738
vn -0.0000 -0.4997 -0.8662
vn -0.0000 -0.6447 -0.7644
vn -0.0000 -0.9848 0.1738
vn -0.0000 -0.9221 -0.3869
vn -0.0000 -0.6155 -0.7881
vn -0.0000 0.6444 0.7647
vn -0.0000 -0.3769 0.9262
vn -0.0000 -0.6444 -0.7647
vn -0.0000 0.9221 0.3869
vn -0.0000 -0.8743 0.4853
vn -0.0000 0.6155 0.7881
vn -0.0000 0.4997 0.8662
vn -0.0000 0.6447 0.7644
vn -0.0000 0.3769 -0.9262
vn -0.0000 0.8743 -0.4853
vn 0.7071 -0.0000 -0.7071
vn -0.7071 0.7071 -0.0000
vn -0.0000 -0.7071 0.7071
vn -0.0000 -0.9031 -0.4294
vn -0.0000 0.9860 0.1670
vn -0.0000 -0.7985 -0.6020
vn -0.0000 -0.9570 0.2900
vn -0.0000 -0.3463 0.9381
vn -0.0000 0.9934 -0.1145
vn -0.0000 -0.9742 0.2256
vn -0.0000 -0.9285 -0.3714
vn -0.0000 -0.2348 0.9720
vn -0.6937 -0.7202 -0.0000
vn 0.9267 0.2657 0.2657
vn -0.5167 -0.8562 -0.0000
vn 0.2012 -0.9796 -0.0000
vn -0.2668 0.9638 -0.0000
vn -0.8992 -0.4375 -0.0000
vn 0.5220 0.8530 -0.0000
vn 0.7295 -0.4836 -0.4836
vn 0.1264 -0.9920 -0.0000
vn -0.2190 0.9757 -0.0000
vn -0.9973 0.0735 -0.0000
vn 0.5008 -0.8656 -0.0000
vn -0.3770 -0.9262 -0.0000
vn -0.9946 0.1037 -0.0000
vn -0.7242 -0.6896 -0.0000
vn -0.3756 -0.9268 -0.0000
vn 0.4283 0.9036 -0.0000
vn 0.4487 -0.8937 -0.0000
vn 0.9742 -0.2255 -0.0000
vn 0.7071 0.7071 -0.0000
vn 0.5230 0.8524 -0.0000
vn 0.2014 -0.9795 -0.0000
vn 0.0617 0.9981 -0.0000
vn -0.1928 0.9812 -0.0000
vn 0.0090 -1.0000 -0.0000
vn -0.8724 -0.4887 -0.0000
vn 0.8647 -0.5024 -0.0000
vn 0.7889 -0.6146 -0.0000
vn -0.0749 -0.9972 -0.0000
vn -0.9918 -0.1274 -0.0000
vn -0.5995 -0.8004 -0.0000
vn 0.9945 -0.1046 -0.0000
vn 0.9125 -0.4091 -0.0000
vn -0.0000 0.6137 0.7895
vn -0.0000 -0.8738 -0.4863
vn -0.0000 0.3214 0.9469
vn -0.0000 0.4666 -0.8845
vn -0.0000 -0.9990 0.0456
vn -0.0000 -0.9333 0.3590
vn -0.0000 0.4797 -0.8774
vn -0.0000 0.0011 -1.0000
vn -0.0000 0.2311 0.9729
vn -0.0000 -0.6634 0.7483
vn -0.0000 0.8841 0.4673
vn -0.0000 0.9991 -0.0428
vn -0.0000 -0.9420 -0.3357
vn -0.0000 0.9802 -0.1982
vn -0.0000 0.4670 -0.8842
vn -0.0000 0.2711 -0.9625
vn -0.0000 -0.9999 0.0130
vn -0.0000 0.8274 0.5616
vn -0.0000 -0.8536 -0.5210
vn -0.0000 -0.2553 0.9669
vn -0.0000 -0.4127 0.9108
vn -0.0000 0.8844 0.4667
vn -0.0000 -0.9809 -0.1943
vn -0.0000 -0.9864 0.1641
vn -0.0000 -0.9956 0.0938
vn -0.0000 -0.9094 -0.4160
vn -0.0000 -0.8901 -0.4557
vn -0.7071 -0.7071 -0.0000
vn 0.5728 -0.2175 -0.7903
vn -0.3813 0.4346 0.8159
vn 0.8161 0.3862 -0.4299
vn -0.7756 -0.6088 0.1668
vn 0.2676 0.8019 0.5342
vn -0.3928 0.4235 0.8163
vn -0.4989 -0.8092 -0.3103
vn 0.6558 0.7491 0.0933
vn 0.1515 -0.6191 -0.7706
vn 0.4179 0.9085 -0.0000
vn -0.1414 0.9900 -0.0000
vn 0.1591 0.9873 -0.0000
vn -0.9535 0.3014 -0.0000
vn 0.4743 0.8804 -0.0000
vn -0.2720 -0.9623 -0.0000
vn -0.9886 -0.1505 -0.0000
vn -0.3738 0.9275 -0.0000
vn 0.9107 0.4130 -0.0000
vn 0.2306 0.9731 -0.0000
vn -0.8586 0.5126 -0.0000
vn -0.4423 -0.8969 -0.0000
vn 0.8934 -0.4492 -0.0000
vn 0.5195 -0.8545 -0.0000
vn -0.8763 0.4817 -0.0000
vn 0.8479 -0.5301 -0.0000
vn -0.1414 0.9899 -0.0000
vn 0.9997 -0.0241 -0.0000
vn 0.2353 0.9719 -0.0000
vn 0.5194 -0.8545 -0.0000
vn -0.4838 -0.8752 -0.0000
vn 0.1132 -0.9936 -0.0000
vn -0.9642 -0.2653 -0.0000
vn 0.8931 -0.4498 -0.0000
vn -0.0122 -0.9999 -0.0000
vn -0.7548 -0.6560 -0.0000
vn -0.2740 -0.9617 -0.0000
vn 0.2365 0.9716 -0.0000
vn 0.1600 0.9871 -0.0000
vn 0.9103 0.4139 -0.0000
vn 0.9099 0.4149 -0.0000
vn -0.9943 0.1067 -0.0000
vn 0.3485 -0.9373 -0.0000
vn -0.9948 -0.0000 0.1015
vn 0.6172 -0.0000 0.7868
vn 0.9916 -0.0000 0.1294
vn 0.9689 -0.0000 0.2473
vn 0.8669 -0.0000 -0.4984
vn -0.0568 -0.0000 0.9984
vn -0.7071 -0.0000 -0.7071
vn -0.5775 -0.0000 0.8164
vn -0.5820 -0.0000 -0.8132
vn -0.8706 -0.0000 -0.4919
vn 0.1156 -0.0000 -0.9933
vn 0.9419 -0.0000 0.3360
vn -0.4862 -0.0000 0.8738
vn 0.9827 -0.0000 -0.1851
vn -0.7282 -0.0000 0.6853
vn -0.5206 -0.0000 -0.8538
vn -0.4498 -0.0000 -0.8931
vn 0.9489 -0.0000 0.3156
vn -0.9973 0.0739 -0.0000
vn 0.1418 -0.0000 -0.9899
vn -0.8856 -0.0000 0.4645
vn 1.0000 -0.0000 0.0050
vn -0.9999 -0.0000 0.0163
vn 0.9105 -0.0000 0.4136
vn 0.9592 -0.2826 -0.0000
vt 0.835938 0.578125
vt 0.835938 0.578125
vt 0.968750 0.562500
vt 0.835938 0.578125
vt 0.835938 0.578125
vt 0.835938 0.578125
vt 0.835938 0.578125
vt 0.835938 0.578125
vt 0.835938 0.578125
vt 0.835938 0.578125
vt 0.835938 0.578125
vt 0.835938 0.578125
vt 0.835938 0.578125
vt 0.835938 0.578125
vt 0.835938 0.578125
vt 0.835938 0.578125
vt 0.835938 0.578125
vt 0.835938 0.578125
vt 0.835938 0.578125
vt 0.835938 0.578125
vt 0.835938 0.578125
vt 0.835938 0.578125
vt 0.835938 0.578125
vt 0.835938 0.578125
vt 0.835938 0.578125
vt 0.835938 0.578125
vt 0.835938 0.578125
vt 0.835938 0.578125
vt 0.835938 0.578125
vt 0.835938 0.578125
vt 0.835938 0.578125
vt 0.835938 0.578125
vt 0.835938 0.578125
vt 0.835938 0.578125
vt 0.835938 0.578125
vt 0.835938 0.578125
vt 0.835938 0.578125
vt 0.835938 0.578125
vt 0.835938 0.578125
vt 0.835938 0.578125
vt 0.835938 0.578125
vt 0.835938 0.578125
vt 0.835938 0.578125
vt 0.835938 0.578125
vt 0.835938 0.578125
vt 0.835938 0.578125
vt 0.835938 0.578125
vt 0.835938 0.578125
vt 0.835938 0.578125
vt 0.835938 0.578125
vt 0.835938 0.578125
vt 0.835938 0.578125
vt 0.835938 0.578125
vt 0.835938 0.578125
vt 0.835938 0.578125
vt 0.835938 0.578125
vt 0.835938 0.578125
vt 0.835938 0.578125
vt 0.835938 0.578125
vt 0.835938 0.578125
vt 0.835938 0.578125
vt 0.835938 0.578125
vt 0.835938 0.578125
vt 0.835938 0.578125
vt 0.835938 0.578125
vt 0.835938 0.578125
vt 0.835938 0.578125
vt 0.835938 0.578125
vt 0.835938 0.578125
vt 0.835938 0.578125
vt 0.835938 0.578125
vt 0.835938 0.578125
vt 0.835938 0.578125
vt 0.835938 0.578125
vt 0.835938 0.578125
vt 0.835938 0.578125
vt 0.835938 0.578125
vt 0.835938 0.578125
vt 0.835938 0.578125
vt 0.835938 0.578125
vt 0.835938 0.578125
vt 0.835938 0.578125
vt 0.835938 0.578125
vt 0.835938 0.578125
vt 0.835938 0.578125
vt 0.835938 0.578125
vt 0.835938 0.578125
vt 0.835938 0.578125
vt 0.835938 0.578125
vt 0.835938 0.578125
vt 0.835938 0.578125
vt 0.835938 0.578125
vt 0.835938 0.578125
vt 0.835938 0.578125
vt 0.835938 0.578125
vt 0.835938 0.578125
vt 0.835938 0.578125
vt 0.835938 0.578125
vt 0.835938 0.578125
vt 0.835938 0.578125
vt 0.835938 0.578125
vt 0.835938 0.578125
vt 0.835938 0.578125
vt 0.835938 0.578125
vt 0.835938 0.578125
vt 0.835938 0.578125
vt 0.835938 0.578125
vt 0.835938 0.578125
vt 0.835938 0.578125
vt 0.835938 0.578125
vt 0.835938 0.578125
vt 0.835938 0.578125
vt 0.835938 0.578125
vt 0.835938 0.578125
vt 0.835938 0.578125
vt 0.835938 0.578125
vt 0.835938 0.578125
vt 0.835938 0.578125
vt 0.835938 0.578125
vt 0.835938 0.578125
vt 0.835938 0.578125
vt 0.835938 0.578125
vt 0.835938 0.578125
vt 0.835938 0.578125
vt 0.835938 0.578125
vt 0.835938 0.578125
vt 0.835938 0.578125
vt 0.835938 0.578125
vt 0.835938 0.578125
vt 0.835938 0.578125
vt 0.835938 0.578125
vt 0.835938 0.578125
vt 0.835938 0.578125
vt 0.835938 0.578125
vt 0.835938 0.578125
vt 0.835938 0.578125
vt 0.835938 0.578125
vt 0.835938 0.578125
vt 0.835938 0.578125
vt 0.835938 0.578125
vt 0.835938 0.578125
vt 0.835938 0.578125
vt 0.835938 0.578125
vt 0.835938 0.578125
vt 0.835938 0.578125
vt 0.835938 0.578125
vt 0.835938 0.578125
vt 0.835938 0.578125
vt 0.835938 0.578125
vt 0.835938 0.578125
vt 0.835938 0.578125
vt 0.835938 0.578125
vt 0.835938 0.578125
vt 0.835938 0.578125
vt 0.835938 0.578125
vt 0.835938 0.578125
vt 0.835938 0.578125
vt 0.835938 0.578125
vt 0.835938 0.578125
vt 0.835938 0.578125
vt 0.835938 0.578125
vt 0.835938 0.578125
vt 0.835938 0.578125
vt 0.835938 0.578125
vt 0.835938 0.578125
vt 0.835938 0.578125
vt 0.835938 0.578125
vt 0.835938 0.578125
vt 0.835938 0.578125
vt 0.835938 0.578125
vt 0.835938 0.578125
vt 0.835938 0.578125
vt 0.835938 0.578125
vt 0.835938 0.578125
vt 0.835938 0.578125
vt 0.835938 0.578125
vt 0.835938 0.578125
vt 0.835938 0.578125
vt 0.835938 0.578125
vt 0.835938 0.578125
vt 0.835938 0.578125
vt 0.835938 0.578125
vt 0.835938 0.578125
vt 0.835938 0.578125
vt 0.835938 0.578125
vt 0.835938 0.578125
vt 0.835938 0.578125
vt 0.835938 0.578125
vt 0.835938 0.578125
vt 0.835938 0.578125
vt 0.835938 0.578125
vt 0.835938 0.578125
vt 0.835938 0.578125
vt 0.835938 0.578125
vt 0.835938 0.578125
vt 0.835938 0.578125
vt 0.835938 0.578125
vt 0.835938 0.578125
vt 0.835938 0.578125
vt 0.835938 0.578125
vt 0.835938 0.578125
vt 0.835938 0.578125
vt 0.835938 0.578125
vt 0.835938 0.578125
vt 0.835938 0.578125
vt 0.835938 0.578125
vt 0.835938 0.578125
vt 0.835938 0.578125
vt 0.835938 0.578125
vt 0.835938 0.578125
vt 0.835938 0.578125
vt 0.835938 0.578125
vt 0.835938 0.578125
vt 0.835938 0.578125
vt 0.835938 0.578125
vt 0.835938 0.578125
vt 0.835938 0.578125
vt 0.835938 0.578125
vt 0.835938 0.578125
vt 0.835938 0.578125
vt 0.835938 0.578125
vt 0.835938 0.578125
vt 0.835938 0.578125
vt 0.835938 0.578125
vt 0.835938 0.578125
vt 0.835938 0.578125
vt 0.835938 0.578125
vt 0.835938 0.578125
vt 0.835938 0.578125
vt 0.835938 0.578125
vt 0.835938 0.578125
vt 0.835938 0.578125
vt 0.835938 0.578125
vt 0.835938 0.578125
vt 0.835938 0.578125
vt 0.835938 0.578125
vt 0.835938 0.578125
vt 0.835938 0.578125
vt 0.835938 0.578125
vt 0.835938 0.578125
vt 0.835938 0.578125
vt 0.835938 0.578125
vt 0.835938 0.578125
vt 0.835938 0.578125
vt 0.835938 0.578125
vt 0.835938 0.578125
vt 0.835938 0.578125
vt 0.835938 0.578125
vt 0.835938 0.578125
vt 0.835938 0.578125
vt 0.835938 0.578125
vt 0.835938 0.578125
vt 0.835938 0.578125
vt 0.835938 0.578125
vt 0.835938 0.578125
vt 0.835938 0.578125
vt 0.835938 0.578125
vt 0.835938 0.578125
vt 0.835938 0.578125
vt 0.835938 0.578125
vt 0.835938 0.578125
vt 0.835938 0.578125
vt 0.835938 0.578125
vt 0.835938 0.578125
vt 0.835938 0.578125
vt 0.835938 0.578125
vt 0.835938 0.578125
vt 0.835938 0.578125
vt 0.835938 0.578125
vt 0.835938 0.578125
vt 0.835938 0.578125
vt 0.835938 0.578125
vt 0.835938 0.578125
vt 0.835938 0.578125
vt 0.835938 0.578125
vt 0.835938 0.578125
vt 0.835938 0.578125
vt 0.835938 0.578125
vt 0.835938 0.578125
vt 0.835938 0.578125
vt 0.835938 0.578125
vt 0.835938 0.578125
vt 0.835938 0.578125
vt 0.835938 0.578125
vt 0.835938 0.578125
vt 0.835938 0.578125
vt 0.835938 0.578125
vt 0.835938 0.578125
vt 0.835938 0.578125
vt 0.835938 0.578125
vt 0.835938 0.578125
vt 0.835938 0.578125
vt 0.835938 0.578125
vt 0.835938 0.578125
vt 0.835938 0.578125
vt 0.835938 0.578125
vt 0.835938 0.578125
vt 0.835938 0.578125
vt 0.835938 0.578125
vt 0.835938 0.578125
vt 0.835938 0.578125
vt 0.835938 0.578125
vt 0.835938 0.578125
vt 0.835938 0.578125
vt 0.835938 0.578125
vt 0.835938 0.578125
vt 0.835938 0.578125
vt 0.835938 0.578125
vt 0.835938 0.578125
vt 0.835938 0.578125
vt 0.835938 0.578125
vt 0.835938 0.578125
vt 0.835938 0.578125
vt 0.835938 0.578125
vt 0.835938 0.578125
vt 0.835938 0.578125
vt 0.835938 0.578125
vt 0.835938 0.578125
vt 0.835938 0.578125
vt 0.835938 0.578125
vt 0.835938 0.578125
vt 0.835938 0.578125
vt 0.835938 0.578125
vt 0.835938 0.578125
vt 0.835938 0.578125
vt 0.835938 0.578125
vt 0.835938 0.578125
vt 0.835938 0.578125
vt 0.835938 0.578125
vt 0.835938 0.578125
vt 0.835938 0.578125
vt 0.835938 0.578125
vt 0.835938 0.578125
vt 0.835938 0.578125
vt 0.835938 0.578125
vt 0.835938 0.578125
vt 0.835938 0.578125
vt 0.835938 0.578125
vt 0.835938 0.578125
vt 0.835938 0.578125
vt 0.835938 0.578125
vt 0.835938 0.578125
vt 0.835938 0.578125
vt 0.835938 0.578125
vt 0.835938 0.578125
vt 0.835938 0.578125
vt 0.835938 0.578125
vt 0.835938 0.578125
vt 0.835938 0.578125
vt 0.835938 0.578125
vt 0.835938 0.578125
vt 0.835938 0.578125
vt 0.835938 0.578125
vt 0.835938 0.578125
vt 0.835938 0.578125
vt 0.835938 0.578125
vt 0.835938 0.578125
vt 0.835938 0.578125
vt 0.835938 0.578125
vt 0.835938 0.578125
vt 0.835938 0.578125
vt 0.835938 0.578125
vt 0.835938 0.578125
vt 0.835938 0.578125
vt 0.835938 0.578125
vt 0.835938 0.578125
vt 0.835938 0.578125
vt 0.835938 0.578125
vt 0.835938 0.578125
vt 0.835938 0.578125
vt 0.835938 0.578125
vt 0.835938 0.578125
vt 0.835938 0.578125
vt 0.835938 0.578125
vt 0.835938 0.578125
vt 0.835938 0.578125
vt 0.835938 0.578125
vt 0.835938 0.578125
vt 0.835938 0.578125
vt 0.835938 0.578125
vt 0.835938 0.578125
vt 0.835938 0.578125
vt 0.835938 0.578125
vt 0.835938 0.578125
vt 0.835938 0.578125
vt 0.835938 0.578125
vt 0.835938 0.578125
vt 0.835938 0.578125
vt 0.835938 0.578125
vt 0.835938 0.578125
vt 0.835938 0.578125
vt 0.835938 0.578125
vt 0.835938 0.578125
vt 0.835938 0.578125
vt 0.835938 0.578125
vt 0.835938 0.578125
vt 0.835938 0.578125
vt 0.835938 0.578125
vt 0.835938 0.578125
vt 0.835938 0.578125
vt 0.835938 0.578125
vt 0.835938 0.578125
vt 0.835938 0.578125
vt 0.835938 0.578125
vt 0.835938 0.578125
vt 0.835938 0.578125
vt 0.835938 0.578125
vt 0.835938 0.578125
vt 0.835938 0.578125
vt 0.835938 0.578125
vt 0.835938 0.578125
vt 0.835938 0.578125
vt 0.835938 0.578125
vt 0.835938 0.578125
vt 0.835938 0.578125
vt 0.835938 0.578125
vt 0.835938 0.578125
vt 0.835938 0.578125
vt 0.835938 0.578125
vt 0.835938 0.578125
vt 0.835938 0.578125
vt 0.835938 0.578125
vt 0.835938 0.578125
vt 0.835938 0.578125
vt 0.835938 0.578125
vt 0.835938 0.578125
vt 0.835938 0.578125
vt 0.835938 0.578125
vt 0.835938 0.578125
vt 0.835938 0.578125
vt 0.835938 0.578125
vt 0.835938 0.578125
vt 0.835938 0.578125
vt 0.835938 0.578125
vt 0.835938 0.578125
vt 0.835938 0.578125
vt 0.835938 0.578125
vt 0.835938 0.578125
vt 0.835938 0.578125
vt 0.835938 0.578125
vt 0.835938 0.578125
vt 0.835938 0.578125
vt 0.835938 0.578125
vt 0.835938 0.578125
vt 0.835938 0.578125
vt 0.835938 0.578125
vt 0.835938 0.578125
vt 0.835938 0.578125
vt 0.835938 0.578125
vt 0.835938 0.578125
vt 0.835938 0.578125
vt 0.835938 0.578125
vt 0.835938 0.578125
vt 0.835938 0.578125
vt 0.835938 0.578125
vt 0.835938 0.578125
vt 0.835938 0.578125
vt 0.835938 0.578125
vt 0.835938 0.578125
vt 0.835938 0.578125
vt 0.835938 0.578125
vt 0.835938 0.578125
vt 0.835938 0.578125
vt 0.835938 0.578125
vt 0.835938 0.578125
vt 0.968750 0.562500
vt 0.835938 0.578125
vt 0.835938 0.578125
vt 0.835938 0.578125
vt 0.968750 0.562500
vt 0.835938 0.578125
vt 0.835938 0.578125
vt 0.968750 0.562500
vt 0.835938 0.578125
vt 0.835938 0.578125
vt 0.968750 0.562500
vt 0.835938 0.578125
vt 0.968750 0.562500
vt 0.835938 0.578125
vt 0.835938 0.578125
vt 0.968750 0.562500
vt 0.835938 0.578125
vt 0.835937 0.578125
vt 0.835938 0.578125
vt 0.968750 0.562500
vt 0.835938 0.578125
vt 0.968750 0.562500
vt 0.835938 0.578125
vt 0.968750 0.562500
vt 0.835938 0.578125
vt 0.835938 0.578125
vt 0.968750 0.562500
vt 0.968750 0.562500
vt 0.835938 0.578125
vt 0.968750 0.562500
vt 0.835938 0.578125
vt 0.968750 0.562500
vt 0.835937 0.578125
vt 0.968750 0.562500
vt 0.835938 0.578125
vt 0.835938 0.578125
vt 0.835938 0.578125
vt 0.835938 0.578125
vt 0.835938 0.578125
vt 0.835938 0.578125
vt 0.835938 0.578125
vt 0.835938 0.578125
vt 0.835938 0.578125
vt 0.835938 0.578125
vt 0.835938 0.578125
vt 0.835938 0.578125
vt 0.835938 0.578125
vt 0.835938 0.578125
vt 0.835938 0.578125
vt 0.835938 0.578125
vt 0.835938 0.578125
vt 0.835938 0.578125
vt 0.835938 0.578125
vt 0.835938 0.578125
vt 0.835938 0.578125
vt 0.835938 0.578125
vt 0.835938 0.578125
vt 0.835938 0.578125
vt 0.835938 0.578125
vt 0.835938 0.578125
vt 0.835938 0.578125
vt 0.835938 0.578125
vt 0.835938 0.578125
vt 0.835938 0.578125
vt 0.835938 0.578125
vt 0.835938 0.578125
vt 0.835938 0.578125
vt 0.835938 0.578125
vt 0.835938 0.578125
vt 0.835938 0.578125
vt 0.835938 0.578125
vt 0.835938 0.578125
vt 0.835938 0.578125
vt 0.835938 0.578125
vt 0.835938 0.578125
vt 0.835938 0.578125
vt 0.835938 0.578125
vt 0.835938 0.578125
vt 0.835938 0.578125
vt 0.835938 0.578125
vt 0.835938 0.578125
vt 0.835938 0.578125
vt 0.835938 0.578125
vt 0.835938 0.578125
vt 0.835938 0.578125
vt 0.835938 0.578125
vt 0.835938 0.578125
vt 0.929688 0.570312
vt 0.835938 0.578125
vt 0.835938 0.578125
vt 0.929688 0.570312
vt 0.929688 0.570312
vt 0.835938 0.578125
vt 0.929688 0.570312
vt 0.835938 0.578125
vt 0.929688 0.570312
vt 0.835938 0.578125
vt 0.929688 0.570312
vt 0.835938 0.578125
vt 0.929688 0.570313
vt 0.835938 0.578125
vt 0.929688 0.570313
vt 0.835938 0.578125
vt 0.929688 0.570313
vt 0.835938 0.578125
vt 0.929688 0.570312
vt 0.835938 0.578125
vt 0.929688 0.570312
vt 0.835938 0.578125
vt 0.929688 0.570313
vt 0.835938 0.578125
vt 0.929688 0.570312
vt 0.835938 0.578125
vt 0.835938 0.578125
vt 0.968750 0.562500
vt 0.968750 0.562500
vt 0.835938 0.578125
vt 0.968750 0.562500
vt 0.968750 0.562500
vt 0.835938 0.578125
vt 0.968750 0.562500
vt 0.835938 0.578125
vt 0.968750 0.562500
vt 0.968750 0.562500
vt 0.835938 0.578125
vt 0.968750 0.562500
vt 0.835938 0.578125
vt 0.968750 0.562500
vt 0.835938 0.578125
vt 0.835938 0.578125
vt 0.835938 0.578125
vt 0.835938 0.578125
vt 0.835938 0.578125
vt 0.835938 0.578125
vt 0.835938 0.578125
vt 0.835938 0.578125
vt 0.835938 0.578125
vt 0.835938 0.578125
vt 0.835938 0.578125
vt 0.835938 0.578125
vt 0.835938 0.578125
vt 0.929688 0.539062
vt 0.835938 0.578125
vt 0.929688 0.539062
vt 0.835938 0.578125
vt 0.929688 0.539062
vt 0.835938 0.578125
vt 0.929688 0.539062
vt 0.835938 0.578125
vt 0.929688 0.539062
vt 0.835938 0.578125
vt 0.929688 0.539062
vt 0.835938 0.578125
vt 0.835938 0.578125
vt 0.835938 0.578125
vt 0.835938 0.578125
vt 0.835938 0.578125
vt 0.945313 0.554688
vt 0.835938 0.578125
vt 0.945313 0.554688
vt 0.835938 0.578125
vt 0.945313 0.554688
vt 0.835938 0.578125
vt 0.945313 0.554688
vt 0.835938 0.578125
vt 0.835938 0.578125
vt 0.835938 0.578125
vt 0.835937 0.578125
vt 0.835938 0.578125
vt 0.835938 0.578125
vt 0.835938 0.578125
vt 0.835938 0.578125
vt 0.835938 0.578125
vt 0.835938 0.578125
vt 0.835938 0.578125
vt 0.835938 0.578125
vt 0.835938 0.578125
vt 0.835938 0.578125
vt 0.835938 0.578125
vt 0.835938 0.578125
vt 0.835938 0.578125
vt 0.835938 0.578125
vt 0.835938 0.578125
vt 0.835938 0.578125
vt 0.835938 0.578125
vt 0.835938 0.578125
vt 0.835938 0.578125
vt 0.835938 0.578125
vt 0.835938 0.578125
vt 0.835938 0.578125
vt 0.835938 0.578125
vt 0.835938 0.578125
vt 0.835938 0.578125
vt 0.835938 0.578125
vt 0.835938 0.578125
vt 0.835937 0.578125
vt 0.835938 0.578125
vt 0.835938 0.578125
vt 0.835938 0.578125
vt 0.835938 0.578125
vt 0.835938 0.578125
vt 0.835938 0.578125
vt 0.835938 0.578125
vt 0.835938 0.578125
vt 0.835938 0.578125
vt 0.835938 0.578125
vt 0.929688 0.539062
vt 0.835938 0.578125
vt 0.929688 0.539062
vt 0.835938 0.578125
vt 0.929688 0.539062
vt 0.835938 0.578125
vt 0.929688 0.539062
vt 0.835938 0.578125
vt 0.929688 0.539063
vt 0.835938 0.578125
vt 0.929688 0.539063
vt 0.835938 0.578125
vt 0.929688 0.539063
vt 0.835938 0.578125
vt 0.929688 0.539063
vt 0.835938 0.578125
vt 0.929688 0.539063
vt 0.835938 0.578125
vt 0.929688 0.539063
vt 0.835938 0.578125
vt 0.929688 0.539062
vt 0.835938 0.578125
vt 0.929688 0.539062
vt 0.835938 0.578125
vt 0.929688 0.539063
vt 0.835938 0.578125
vt 0.929688 0.539063
vt 0.835938 0.578125
vt 0.929688 0.539063
vt 0.835938 0.578125
vt 0.929688 0.539062
vt 0.835938 0.578125
vt 0.929688 0.539062
vt 0.835938 0.578125
vt 0.929688 0.539063
vt 0.835938 0.578125
vt 0.929688 0.539063
vt 0.835938 0.578125
vt 0.929688 0.539062
vt 0.835938 0.578125
vt 0.929688 0.539062
vt 0.835938 0.578125
vt 0.835938 0.578125
vt 0.929688 0.539063
vt 0.929688 0.539063
vt 0.835938 0.578125
vt 0.929688 0.539062
vt 0.835938 0.578125
vt 0.929688 0.539063
vt 0.835938 0.578125
vt 0.929688 0.539062
vt 0.835938 0.578125
vt 0.929688 0.539063
vt 0.835938 0.578125
vt 0.929688 0.539062
vt 0.835938 0.578125
vt 0.929688 0.539062
vt 0.835938 0.578125
vt 0.929687 0.539062
vt 0.835937 0.578125
vt 0.929688 0.539062
vt 0.835938 0.578125
vt 0.929688 0.539062
vt 0.835938 0.578125
vt 0.929688 0.539062
vt 0.835938 0.578125
vt 0.929688 0.539062
vt 0.835938 0.578125
vt 0.929688 0.539062
vt 0.835938 0.578125
vt 0.929688 0.539062
vt 0.835938 0.578125
vt 0.929688 0.539062
vt 0.835938 0.578125
vt 0.929688 0.539062
vt 0.835938 0.578125
vt 0.929688 0.539062
vt 0.835938 0.578125
vt 0.929688 0.539062
vt 0.835938 0.578125
vt 0.929688 0.539062
vt 0.835938 0.578125
vt 0.929688 0.539062
vt 0.835938 0.578125
vt 0.929688 0.539062
vt 0.835938 0.578125
vt 0.929688 0.539063
vt 0.835938 0.578125
vt 0.929688 0.539062
vt 0.835938 0.578125
vt 0.929687 0.539062
vt 0.835937 0.578125
vt 0.929688 0.539062
vt 0.835938 0.578125
vt 0.929688 0.539063
vt 0.835938 0.578125
vt 0.929688 0.539063
vt 0.835938 0.578125
vt 0.929688 0.539063
vt 0.835938 0.578125
vt 0.835938 0.578125
vt 0.929688 0.539062
vt 0.835938 0.578125
vt 0.929688 0.539063
vt 0.835938 0.578125
vt 0.929688 0.539062
vt 0.929688 0.539063
vt 0.835938 0.578125
vt 0.929688 0.539062
vt 0.835938 0.578125
vt 0.929688 0.539063
vt 0.835938 0.578125
vt 0.929688 0.539062
vt 0.835938 0.578125
vt 0.835938 0.578125
vt 0.835938 0.578125
vt 0.835938 0.578125
vt 0.835938 0.578125
vt 0.835938 0.578125
vt 0.835938 0.578125
vt 0.835938 0.578125
vt 0.835938 0.578125
vt 0.835938 0.578125
vt 0.835938 0.578125
vt 0.835938 0.578125
vt 0.835938 0.578125
vt 0.835938 0.578125
vt 0.835938 0.578125
vt 0.835938 0.578125
vt 0.835938 0.578125
vt 0.835938 0.578125
vt 0.835938 0.578125
vt 0.835938 0.578125
vt 0.835938 0.578125
vt 0.835938 0.578125
vt 0.835938 0.578125
vt 0.835938 0.578125
vt 0.835938 0.578125
vt 0.835938 0.578125
vt 0.835938 0.578125
vt 0.835938 0.578125
vt 0.835938 0.578125
vt 0.835938 0.578125
vt 0.835938 0.578125
vt 0.835938 0.578125
vt 0.835938 0.578125
vt 0.835938 0.578125
vt 0.835938 0.578125
vt 0.835938 0.578125
vt 0.953125 0.562500
vt 0.835938 0.578125
vt 0.953125 0.562500
vt 0.835938 0.578125
vt 0.953125 0.562500
vt 0.835938 0.578125
vt 0.953125 0.562500
vt 0.835938 0.578125
vt 0.953125 0.562500
vt 0.835938 0.578125
vt 0.953125 0.562500
vt 0.835938 0.578125
vt 0.953125 0.562500
vt 0.835938 0.578125
vt 0.953125 0.562500
vt 0.835938 0.578125
vt 0.953125 0.562500
vt 0.835938 0.578125
vt 0.953125 0.562500
vt 0.835938 0.578125
vt 0.953125 0.562500
vt 0.835938 0.578125
vt 0.953125 0.562500
vt 0.835938 0.578125
vt 0.953125 0.562500
vt 0.835938 0.578125
vt 0.953125 0.562500
vt 0.835938 0.578125
vt 0.953125 0.562500
vt 0.835938 0.578125
vt 0.953125 0.562500
vt 0.835938 0.578125
vt 0.953125 0.562500
vt 0.835938 0.578125
vt 0.953125 0.562500
vt 0.835938 0.578125
vt 0.953125 0.562500
vt 0.835938 0.578125
vt 0.953125 0.562500
vt 0.835938 0.578125
vt 0.953125 0.562500
vt 0.835938 0.578125
vt 0.953125 0.562500
vt 0.835938 0.578125
vt 0.953125 0.562500
vt 0.835938 0.578125
vt 0.953125 0.562500
vt 0.835938 0.578125
vt 0.953125 0.562500
vt 0.835938 0.578125
vt 0.953125 0.562500
vt 0.835938 0.578125
vt 0.953125 0.562500
vt 0.835938 0.578125
vt 0.953125 0.562500
vt 0.835938 0.578125
vt 0.953125 0.562500
vt 0.835938 0.578125
vt 0.835938 0.578125
vt 0.835938 0.578125
vt 0.835938 0.578125
vt 0.835938 0.578125
vt 0.835938 0.578125
vt 0.554688 0.421875
vt 0.835938 0.578125
vt 0.554688 0.421875
vt 0.835938 0.578125
vt 0.554688 0.421875
vt 0.835938 0.578125
vt 0.554688 0.421875
vt 0.835938 0.578125
vt 0.554688 0.421875
vt 0.835938 0.578125
vt 0.835938 0.578125
vt 0.835938 0.578125
vt 0.835938 0.578125
vt 0.835938 0.578125
vt 0.835938 0.578125
vt 0.835938 0.578125
vt 0.835938 0.578125
vt 0.835938 0.578125
vt 0.835938 0.578125
vt 0.835938 0.578125
vt 0.835938 0.578125
vt 0.835938 0.578125
vt 0.835938 0.578125
vt 0.835938 0.578125
vt 0.835938 0.578125
vt 0.835938 0.578125
vt 0.835938 0.578125
vt 0.835938 0.578125
vt 0.835938 0.578125
vt 0.953125 0.578125
vt 0.835938 0.578125
vt 0.953125 0.578125
vt 0.835938 0.578125
vt 0.953125 0.578125
vt 0.835938 0.578125
vt 0.953125 0.578125
vt 0.835938 0.578125
vt 0.953125 0.578125
vt 0.835938 0.578125
vt 0.953125 0.578125
vt 0.835938 0.578125
vt 0.953125 0.578125
vt 0.835938 0.578125
vt 0.953125 0.578125
vt 0.835938 0.578125
vt 0.953125 0.578125
vt 0.835938 0.578125
vt 0.953125 0.578125
vt 0.835938 0.578125
vt 0.835938 0.578125
vt 0.835938 0.578125
vt 0.835938 0.578125
vt 0.835938 0.578125
vt 0.835938 0.578125
vt 0.835938 0.578125
vt 0.835938 0.578125
vt 0.835938 0.578125
vt 0.835938 0.578125
vt 0.835938 0.578125
vt 0.835938 0.578125
vt 0.835938 0.578125
vt 0.835938 0.578125
vt 0.835938 0.578125
vt 0.835938 0.578125
vt 0.835938 0.578125
vt 0.835938 0.578125
vt 0.835938 0.578125
vt 0.835938 0.578125
vt 0.835938 0.578125
vt 0.835938 0.578125
vt 0.835938 0.578125
vt 0.835938 0.578125
vt 0.835938 0.578125
vt 0.835937 0.578125
vt 0.835938 0.578125
vt 0.835938 0.578125
vt 0.835938 0.578125
vt 0.835938 0.578125
vt 0.835938 0.578125
vt 0.835938 0.578125
vt 0.835938 0.578125
vt 0.835938 0.578125
vt 0.835938 0.578125
vt 0.835938 0.578125
vt 0.945313 0.585938
vt 0.835938 0.578125
vt 0.945313 0.585938
vt 0.835938 0.578125
vt 0.945313 0.585938
vt 0.835938 0.578125
vt 0.945313 0.585938
vt 0.835938 0.578125
vt 0.945313 0.585938
vt 0.835938 0.578125
vt 0.945313 0.585938
vt 0.835938 0.578125
vt 0.945313 0.585938
vt 0.835938 0.578125
vt 0.945312 0.585938
vt 0.835938 0.578125
vt 0.945313 0.585938
vt 0.835938 0.578125
vt 0.945313 0.585938
vt 0.835938 0.578125
vt 0.945313 0.585938
vt 0.835938 0.578125
vt 0.945313 0.585938
vt 0.835938 0.578125
vt 0.945313 0.585938
vt 0.835938 0.578125
vt 0.945313 0.585938
vt 0.835938 0.578125
vt 0.945313 0.585938
vt 0.835938 0.578125
vt 0.835938 0.578125
vt 0.945313 0.585938
vt 0.945312 0.585938
vt 0.835938 0.578125
vt 0.945313 0.585938
vt 0.835938 0.578125
vt 0.945313 0.585938
vt 0.835938 0.578125
vt 0.945313 0.585938
vt 0.835938 0.578125
vt 0.945313 0.585938
vt 0.835938 0.578125
vt 0.945313 0.585938
vt 0.835938 0.578125
vt 0.945313 0.585938
vt 0.835938 0.578125
vt 0.945313 0.585938
vt 0.835938 0.578125
vt 0.945313 0.585938
vt 0.835938 0.578125
vt 0.945312 0.585938
vt 0.835938 0.578125
vt 0.835938 0.578125
vt 0.945313 0.585938
vt 0.945313 0.585938
vt 0.835938 0.578125
vt 0.945313 0.585938
vt 0.835938 0.578125
vt 0.945313 0.585938
vt 0.835938 0.578125
vt 0.945313 0.585938
vt 0.835938 0.578125
vt 0.945313 0.585938
vt 0.835938 0.578125
vt 0.945312 0.585938
vt 0.835938 0.578125
vt 0.945313 0.585938
vt 0.835938 0.578125
vt 0.945312 0.585938
vt 0.835937 0.578125
vt 0.835938 0.578125
vt 0.945313 0.585938
vt 0.945313 0.585938
vt 0.835938 0.578125
vt 0.945313 0.585938
vt 0.835938 0.578125
vt 0.945313 0.585938
vt 0.835938 0.578125
vt 0.945313 0.585938
vt 0.835938 0.578125
vt 0.945312 0.585938
vt 0.835938 0.578125
vt 0.945312 0.585937
vt 0.835938 0.578125
vt 0.835938 0.578125
vt 0.945312 0.585938
vt 0.945313 0.585938
vt 0.835938 0.578125
vt 0.945313 0.585938
vt 0.835938 0.578125
vt 0.945313 0.585938
vt 0.835938 0.578125
vt 0.835938 0.578125
vt 0.835938 0.578125
vt 0.835937 0.578125
vt 0.835938 0.578125
vt 0.835938 0.578125
vt 0.835938 0.578125
vt 0.835938 0.578125
vt 0.835937 0.578125
vt 0.835938 0.578125
vt 0.835938 0.578125
vt 0.835937 0.578125
vt 0.835938 0.578125
vt 0.835938 0.578125
vt 0.835938 0.578125
vt 0.835938 0.578125
vt 0.835938 0.578125
vt 0.835938 0.578125
vt 0.835938 0.578125
vt 0.835938 0.578125
vt 0.835938 0.578125
vt 0.921875 0.570312
vt 0.835938 0.578125
vt 0.921875 0.570312
vt 0.835938 0.578125
vt 0.921875 0.570313
vt 0.835938 0.578125
vt 0.921875 0.570313
vt 0.835938 0.578125
vt 0.921875 0.570312
vt 0.835938 0.578125
vt 0.921875 0.570312
vt 0.835938 0.578125
vt 0.921875 0.570312
vt 0.835937 0.578125
vt 0.921875 0.570312
vt 0.835938 0.578125
vt 0.921875 0.570313
vt 0.835938 0.578125
vt 0.921875 0.570312
vt 0.835937 0.578125
vt 0.921875 0.570312
vt 0.835938 0.578125
vt 0.921875 0.570313
vt 0.835938 0.578125
vt 0.921875 0.570312
vt 0.835938 0.578125
vt 0.921875 0.570312
vt 0.835938 0.578125
vt 0.921875 0.570312
vt 0.835938 0.578125
vt 0.921875 0.570312
vt 0.835938 0.578125
vt 0.921875 0.570312
vt 0.835938 0.578125
vt 0.921875 0.570313
vt 0.835938 0.578125
vt 0.921875 0.570313
vt 0.835938 0.578125
vt 0.921875 0.570312
vt 0.835938 0.578125
vt 0.835938 0.578125
vt 0.835938 0.578125
vt 0.835938 0.578125
vt 0.835938 0.578125
vt 0.835938 0.578125
vt 0.835938 0.578125
vt 0.835938 0.578125
vt 0.945313 0.578125
vt 0.835938 0.578125
vt 0.945312 0.578125
vt 0.835938 0.578125
vt 0.945313 0.578125
vt 0.835938 0.578125
vt 0.945312 0.578125
vt 0.835938 0.578125
vt 0.945313 0.578125
vt 0.835938 0.578125
vt 0.945313 0.578125
vt 0.835938 0.578125
vt 0.953125 0.531250
vt 0.835938 0.578125
vt 0.953125 0.531250
vt 0.835938 0.578125
vt 0.953125 0.531250
vt 0.835938 0.578125
s 0
usemtl Material
f 97/97/1 14/14/1 38/38/1 129/129/1
f 249/249/1 10/10/1 34/34/1 281/281/1
f 128/128/1 32/32/1 56/56/1 160/160/1
f 120/120/1 28/28/1 52/52/1 152/152/1
f 280/280/1 31/31/1 55/55/1 312/312/1
f 269/269/1 24/24/1 48/48/1 301/301/1
f 245/245/1 5/5/1 10/10/1 249/249/1
f 5/5/1 7/7/1 877/1067/1 878/1068/1 11/11/1 10/10/1
f 237/237/1 472/475/1 470/472/1 12/12/1 253/253/1
f 465/465/2 470/472/2 554/582/2 552/579/2
f 89/89/3 475/480/3 473/477/3 14/14/3 97/97/3
f 240/240/3 7/7/3 797/941/3 816/960/3 264/264/3
f 85/85/3 8/8/3 16/16/3 101/101/3
f 244/244/3 4/4/3 13/13/3 260/260/3
f 88/88/4 7/7/4 18/18/4 108/108/4
f 7/7/4 5/5/4 19/19/4 703/803/4 706/806/4 18/18/4
f 96/96/4 6/6/4 20/20/4 112/112/4
f 6/6/4 8/8/4 17/17/4 20/20/4
f 233/233/5 2/2/5 22/22/5 265/265/5
f 2/2/5 4/4/5 23/23/5 22/22/5
f 241/241/5 8/8/5 24/24/5 269/269/5
f 8/8/5 6/6/5 21/21/5 24/24/5
f 81/81/6 1/1/6 26/26/6 113/113/6 467/468/6
f 1/1/6 465/465/6 476/482/6 477/483/6 478/484/6 26/26/6
f 92/92/6 4/4/6 28/28/6 120/120/6
f 4/4/6 2/2/6 25/25/6 565/598/6 566/599/6 564/597/6 580/619/6 582/621/6 583/622/6 581/620/6 28/28/6
f 93/93/7 5/5/7 30/30/7 121/121/7
f 248/248/7 1/1/7 588/631/7 591/634/7 592/635/7 589/632/7 31/31/7 280/280/7
f 84/84/7 2/2/7 623/666/7 624/667/7 32/32/7 128/128/7
f 236/236/7 6/6/7 29/29/7 276/276/7
f 42/42/5 43/43/5 67/67/5 66/66/5
f 52/52/1 49/49/1 73/73/1 562/595/1 561/594/1 76/76/1
f 34/34/6 35/35/6 59/59/6 873/1063/6 874/1064/6 58/58/6
f 44/44/1 41/41/1 763/897/1 766/900/1 762/896/1 68/68/1
f 145/145/3 50/50/3 74/74/3 177/177/3
f 36/36/4 33/33/4 57/57/4 60/60/4
f 12/12/1 9/9/1 33/33/1 36/36/1
f 108/108/1 18/18/1 42/42/1 140/140/1
f 260/260/1 13/13/1 37/37/1 292/292/1
f 265/265/1 22/22/1 46/46/1 297/297/1
f 10/10/1 11/11/1 35/35/1 34/34/1
f 20/20/1 17/17/1 41/41/1 44/44/1
f 113/113/1 26/26/1 50/50/1 145/145/1
f 264/264/1 15/15/1 39/39/1 296/296/1
f 24/24/1 21/21/1 45/45/1 48/48/1
f 121/121/1 30/30/1 54/54/1 153/153/1
f 253/253/1 12/12/1 36/36/1 285/285/1
f 18/18/1 19/19/1 43/43/1 42/42/1
f 28/28/1 25/25/1 49/49/1 52/52/1
f 101/101/1 16/16/1 40/40/1 133/133/1
f 22/22/1 23/23/1 47/47/1 46/46/1
f 276/276/1 29/29/1 53/53/1 308/308/1
f 112/112/1 20/20/1 44/44/1 144/144/1
f 26/26/1 27/27/1 51/51/1 50/50/1
f 313/313/1 58/58/1 874/1064/1 889/1079/1 873/1063/1 59/59/1 320/320/1
f 376/376/3 791/935/3 806/950/3 807/951/3 794/938/3 168/168/3
f 172/172/4 66/66/4 67/67/4 173/173/4 695/795/4 707/807/4 708/808/4 694/794/4
f 329/329/5 70/70/5 71/71/5 336/336/5
f 177/177/6 74/74/6 75/75/6 181/181/6
f 360/360/7 344/344/7 79/79/7 189/189/7
f 285/285/7 36/36/7 60/60/7 317/317/7
f 50/50/5 51/51/5 75/75/5 74/74/5
f 144/144/3 44/44/3 68/68/3 176/176/3
f 129/129/4 38/38/4 62/62/4 161/161/4
f 152/152/7 52/52/7 76/76/7 184/184/7
f 297/297/3 46/46/3 70/70/3 329/329/3
f 292/292/1 37/37/1 61/61/1 324/324/1
f 153/153/6 54/54/6 78/78/6 185/185/6
f 48/48/6 45/45/6 69/69/6 72/72/6
f 296/296/5 39/39/5 63/63/5 328/328/5
f 308/308/1 53/53/1 77/77/1 340/340/1
f 46/46/4 47/47/4 71/71/4 70/70/4
f 133/133/6 40/40/6 64/64/6 165/165/6
f 312/312/5 55/55/5 79/79/5 344/344/5
f 281/281/3 34/34/3 58/58/3 313/313/3
f 301/301/7 48/48/7 72/72/7 333/333/7
f 140/140/7 42/42/7 66/66/7 172/172/7
f 160/160/4 56/56/4 593/636/4 80/80/4 604/647/4 192/192/4
f 55/55/4 157/157/4 189/189/4 79/79/4
f 157/157/4 158/158/4 190/190/4 189/189/4
f 158/158/4 159/159/4 191/191/4 190/190/4
f 159/159/4 160/160/4 192/192/4 191/191/4
f 41/41/7 137/137/7 169/169/7 760/894/7 767/901/7 768/902/7 763/897/7
f 137/137/7 138/138/7 170/170/7 169/169/7
f 138/138/7 139/139/7 171/171/7 170/170/7
f 139/139/7 140/140/7 172/172/7 171/171/7
f 39/39/6 136/136/6 168/168/6 794/938/6 63/63/6
f 136/136/6 135/135/6 167/167/6 168/168/6
f 135/135/6 134/134/6 166/166/6 167/167/6
f 134/134/6 133/133/6 165/165/6 166/166/6
f 53/53/6 156/156/6 188/188/6 77/77/6
f 156/156/6 155/155/6 187/187/6 188/188/6
f 155/155/6 154/154/6 186/186/6 608/651/6 187/187/6
f 154/154/6 153/153/6 185/185/6 186/186/6
f 51/51/7 149/149/7 181/181/7 75/75/7
f 149/149/7 150/150/7 182/182/7 181/181/7
f 150/150/7 151/151/7 183/183/7 487/501/7 182/182/7
f 151/151/7 152/152/7 184/184/7 183/183/7
f 37/37/4 132/132/4 164/164/4 61/61/4
f 132/132/4 131/131/4 163/163/4 164/164/4
f 131/131/4 130/130/4 162/162/4 163/163/4
f 130/130/4 129/129/4 161/161/4 162/162/4
f 43/43/3 141/141/3 173/173/3 67/67/3
f 141/141/3 142/142/3 174/174/3 173/173/3
f 142/142/3 143/143/3 175/175/3 174/174/3
f 143/143/3 144/144/3 176/176/3 175/175/3
f 337/337/7 348/348/7 192/192/7 604/647/7 611/654/7
f 353/353/1 186/186/1 194/194/1 385/385/1
f 352/352/7 601/644/7 356/356/7 190/190/7 191/191/7
f 191/191/1 192/192/1 200/200/1 199/199/1
f 73/73/6 180/180/6 184/184/6 76/76/6 561/594/6 563/596/6 562/595/6
f 183/183/3 184/184/3 224/224/3 223/223/3
f 179/179/6 471/474/6 178/178/6 182/182/6 487/501/6 490/504/6 497/511/6 498/512/6 496/510/6
f 169/169/3 170/170/3 210/210/3 209/209/3
f 767/901/1 760/894/1 773/907/1 777/911/1
f 376/376/1 168/168/1 208/208/1 408/408/1
f 170/170/4 171/171/4 700/800/4 701/801/4 702/802/4 174/174/4 175/175/4
f 181/181/3 182/182/3 222/222/3 221/221/3
f 321/321/3 364/364/3 165/165/3 64/64/3
f 168/168/4 167/167/4 207/207/4 208/208/4
f 368/368/3 372/372/3 167/167/3 166/166/3
f 369/369/5 162/162/5 202/202/5 401/401/5
f 19/19/1 109/109/1 141/141/1 43/43/1
f 109/109/1 110/110/1 142/142/1 141/141/1
f 110/110/1 111/111/1 143/143/1 142/142/1
f 111/111/1 112/112/1 144/144/1 143/143/1
f 15/15/1 104/104/1 136/136/1 39/39/1
f 104/104/1 103/103/1 135/135/1 136/136/1
f 103/103/1 102/102/1 134/134/1 135/135/1
f 102/102/1 101/101/1 133/133/1 134/134/1
f 29/29/1 124/124/1 156/156/1 53/53/1
f 124/124/1 123/123/1 155/155/1 156/156/1
f 123/123/1 122/122/1 154/154/1 155/155/1
f 122/122/1 121/121/1 153/153/1 154/154/1
f 25/25/1 116/116/1 148/148/1 49/49/1
f 116/116/1 115/115/1 147/147/1 148/148/1
f 115/115/1 114/114/1 146/146/1 147/147/1
f 114/114/1 113/113/1 145/145/1 146/146/1
f 17/17/1 105/105/1 137/137/1 41/41/1
f 105/105/1 106/106/1 138/138/1 137/137/1
f 106/106/1 107/107/1 139/139/1 138/138/1
f 107/107/1 108/108/1 140/140/1 139/139/1
f 49/49/3 148/148/3 180/180/3 73/73/3
f 148/148/3 147/147/3 179/179/3 180/180/3
f 147/147/3 146/146/3 469/471/3 471/474/3 179/179/3
f 146/146/3 145/145/3 177/177/3 178/178/3 469/471/3
f 1/1/7 81/81/7 125/125/7 31/31/7 589/632/7 590/633/7 588/631/7
f 81/81/7 82/82/7 126/126/7 125/125/7
f 82/82/7 474/479/7 83/83/7 127/127/7 126/126/7
f 83/83/7 84/84/7 128/128/7 127/127/7
f 6/6/7 96/96/7 124/124/7 29/29/7
f 96/96/7 95/95/7 627/670/7 605/648/7 123/123/7 124/124/7
f 95/95/7 94/94/7 122/122/7 123/123/7 621/664/7 605/648/7
f 94/94/7 93/93/7 121/121/7 122/122/7
f 475/480/8 468/469/8 559/590/8 560/592/8
f 89/89/6 90/90/6 118/118/6 117/117/6
f 90/90/6 91/91/6 119/119/6 118/118/6
f 91/91/6 92/92/6 120/120/6 119/119/6
f 2/2/6 84/84/6 116/116/6 25/25/6
f 84/84/6 83/83/6 115/115/6 116/116/6
f 83/83/6 474/479/6 466/467/6 114/114/6 115/115/6
f 81/81/5 467/468/5 482/491/5 479/486/5
f 5/5/4 93/93/4 109/109/4 19/19/4
f 93/93/4 94/94/4 110/110/4 109/109/4
f 94/94/4 95/95/4 111/111/4 110/110/4
f 95/95/4 96/96/4 112/112/4 111/111/4
f 8/8/4 85/85/4 105/105/4 17/17/4
f 85/85/4 86/86/4 106/106/4 105/105/4
f 86/86/4 87/87/4 107/107/4 106/106/4
f 87/87/4 88/88/4 108/108/4 107/107/4
f 7/7/3 88/88/3 808/952/3 797/941/3
f 88/88/3 87/87/3 103/103/3 104/104/3
f 87/87/3 86/86/3 792/936/3 811/955/3 812/956/3 793/937/3 102/102/3 103/103/3
f 86/86/3 85/85/3 101/101/3 102/102/3 793/937/3 819/963/3 818/962/3 792/936/3
f 4/4/3 92/92/3 100/100/3 13/13/3
f 92/92/3 91/91/3 99/99/3 100/100/3
f 91/91/3 90/90/3 98/98/3 99/99/3
f 90/90/3 89/89/3 97/97/3 98/98/3
f 27/27/1 117/117/1 149/149/1 51/51/1
f 117/117/1 118/118/1 150/150/1 149/149/1
f 118/118/1 119/119/1 151/151/1 150/150/1
f 119/119/1 120/120/1 152/152/1 151/151/1
f 31/31/1 125/125/1 157/157/1 55/55/1
f 125/125/1 126/126/1 158/158/1 157/157/1
f 126/126/1 127/127/1 159/159/1 158/158/1
f 127/127/1 128/128/1 160/160/1 159/159/1
f 13/13/1 100/100/1 132/132/1 37/37/1
f 100/100/1 99/99/1 131/131/1 132/132/1
f 99/99/1 98/98/1 130/130/1 131/131/1
f 98/98/1 97/97/1 129/129/1 130/130/1
f 368/368/1 166/166/1 206/206/1 400/400/1
f 180/180/7 179/179/7 219/219/7 220/220/7
f 189/189/1 190/190/1 198/198/1 197/197/1
f 345/345/1 188/188/1 196/196/1 377/377/1
f 188/188/1 187/187/1 195/195/1 196/196/1
f 186/186/1 185/185/1 193/193/1 194/194/1
f 360/360/1 189/189/1 197/197/1 392/392/1
f 352/352/1 191/191/1 199/199/1 384/384/1
f 220/220/6 219/219/6 494/508/6 499/513/6 495/509/6 491/505/6 223/223/6 224/224/6
f 218/218/6 217/217/6 221/221/6 222/222/6 489/503/6 493/507/6 492/506/6 488/502/6
f 209/209/4 210/210/4 713/813/4 714/814/4 715/815/4 716/816/4 717/817/4 215/215/4 216/216/4 687/787/4 720/820/4 718/818/4 719/819/4 686/786/4
f 211/211/4 212/212/4 688/788/4 696/796/4 689/789/4 213/213/4 214/214/4 693/793/4 697/797/4 692/792/4 691/791/4 699/799/4 698/798/4 690/790/4
f 396/396/3 400/400/3 206/206/3 205/205/3
f 404/404/3 408/408/3 208/208/3 207/207/3
f 412/412/7 416/416/7 231/231/7 232/232/7
f 420/420/7 424/424/7 229/229/7 230/230/7
f 194/194/4 193/193/4 225/225/4 226/226/4
f 184/184/5 180/180/5 220/220/5 224/224/5
f 196/196/4 195/195/4 227/227/4 228/228/4
f 171/171/3 172/172/3 212/212/3 211/211/3
f 179/179/1 496/510/1 494/508/1 219/219/1
f 197/197/6 198/198/6 230/230/6 229/229/6
f 182/182/5 178/178/5 218/218/5 488/502/5 489/503/5 222/222/5
f 199/199/6 200/200/6 232/232/6 231/231/6
f 173/173/7 174/174/7 214/214/7 213/213/7
f 177/177/1 181/181/1 221/221/1 217/217/1
f 377/377/5 196/196/5 228/228/5 409/409/5
f 176/176/5 169/169/5 209/209/5 686/786/5 687/787/5 216/216/5
f 162/162/6 161/161/6 201/201/6 202/202/6
f 384/384/1 199/199/1 231/231/1 416/416/1
f 175/175/7 176/176/7 216/216/7 215/215/7
f 170/170/1 175/175/1 215/215/1 210/210/1
f 385/385/5 194/194/5 226/226/5 417/417/5
f 174/174/5 171/171/5 211/211/5 690/790/5 691/791/5 692/792/5 693/793/5 214/214/5
f 164/164/6 163/163/6 203/203/6 204/204/6
f 392/392/1 197/197/1 229/229/1 424/424/1
f 178/178/7 177/177/7 217/217/7 218/218/7
f 172/172/1 694/794/1 688/788/1 212/212/1
f 361/361/5 164/164/5 204/204/5 393/393/5
f 166/166/4 165/165/4 205/205/4 206/206/4
f 165/165/5 364/364/5 396/396/5 205/205/5
f 364/364/5 363/363/5 395/395/5 396/396/5
f 363/363/5 362/362/5 394/394/5 395/395/5
f 362/362/5 361/361/5 393/393/5 800/944/5 801/945/5 394/394/5
f 193/193/1 389/389/1 421/421/1 225/225/1
f 389/389/1 390/390/1 422/422/1 421/421/1
f 390/390/1 391/391/1 423/423/1 422/422/1
f 391/391/1 392/392/1 424/424/1 423/423/1
f 198/198/5 388/388/5 420/420/5 230/230/5
f 388/388/5 387/387/5 419/419/5 595/638/5 420/420/5
f 387/387/5 386/386/5 418/418/5 612/655/5 613/656/5 419/419/5
f 386/386/5 385/385/5 417/417/5 418/418/5
f 195/195/1 381/381/1 413/413/1 227/227/1
f 381/381/1 382/382/1 414/414/1 413/413/1
f 382/382/1 383/383/1 415/415/1 414/414/1
f 383/383/1 384/384/1 416/416/1 415/415/1
f 200/200/5 380/380/5 412/412/5 232/232/5
f 380/380/5 379/379/5 411/411/5 412/412/5
f 379/379/5 378/378/5 410/410/5 607/650/5 411/411/5
f 378/378/5 377/377/5 409/409/5 610/653/5 410/410/5
f 226/226/7 225/225/7 421/421/7 417/417/7
f 417/417/7 421/421/7 422/422/7 599/642/7 418/418/7
f 625/668/9 612/655/9 670/755/9 682/779/9
f 349/349/1 187/187/1 634/683/1 643/701/1
f 228/228/7 227/227/7 413/413/7 409/409/7
f 409/409/7 413/413/7 414/414/7 614/657/7 610/653/7
f 599/642/10 603/646/10 652/719/10 650/714/10
f 411/411/7 415/415/7 416/416/7 412/412/7
f 202/202/3 201/201/3 405/405/3 401/401/3
f 401/401/3 405/405/3 406/406/3 803/947/3 402/402/3
f 402/402/3 803/947/3 804/948/3
f 403/403/3 407/407/3 408/408/3 404/404/3
f 204/204/3 203/203/3 397/397/3 393/393/3
f 393/393/3 397/397/3 398/398/3 394/394/3 801/945/3 823/967/3 800/944/3
f 394/394/3 398/398/3 399/399/3 395/395/3
f 395/395/3 399/399/3 400/400/3 396/396/3
f 187/187/1 349/349/1 381/381/1 195/195/1
f 349/349/1 350/350/1 382/382/1 381/381/1
f 350/350/1 351/351/1 383/383/1 382/382/1
f 351/351/1 352/352/1 384/384/1 383/383/1
f 185/185/1 357/357/1 389/389/1 193/193/1
f 357/357/1 358/358/1 390/390/1 389/389/1
f 358/358/1 359/359/1 391/391/1 390/390/1
f 359/359/1 360/360/1 392/392/1 391/391/1
f 192/192/1 348/348/1 380/380/1 200/200/1
f 348/348/1 347/347/1 379/379/1 380/380/1
f 347/347/1 346/346/1 378/378/1 379/379/1
f 346/346/1 345/345/1 377/377/1 378/378/1
f 163/163/1 365/365/1 397/397/1 203/203/1
f 365/365/1 366/366/1 398/398/1 397/397/1
f 366/366/1 367/367/1 399/399/1 398/398/1
f 367/367/1 368/368/1 400/400/1 399/399/1
f 167/167/5 372/372/5 404/404/5 207/207/5
f 372/372/5 371/371/5 403/403/5 404/404/5
f 371/371/5 370/370/5 402/402/5 804/948/5 805/949/5 403/403/5
f 370/370/5 369/369/5 401/401/5 402/402/5
f 163/163/3 162/162/3 369/369/3 365/365/3
f 365/365/3 369/369/3 370/370/3 798/942/3 810/954/3 799/943/3 366/366/3
f 366/366/3 799/943/3 821/965/3 367/367/3
f 367/367/3 371/371/3 372/372/3 368/368/3
f 61/61/3 164/164/3 361/361/3 324/324/3
f 820/964/11 371/371/11 834/989/11 866/1052/11
f 323/323/3 796/940/3 822/966/3 795/939/3 362/362/3 363/363/3 322/322/3
f 322/322/3 363/363/3 364/364/3 321/321/3
f 161/161/1 373/373/1 405/405/1 201/201/1
f 373/373/1 374/374/1 406/406/1 405/405/1
f 374/374/1 375/375/1 407/407/1 406/406/1
f 375/375/1 376/376/1 408/408/1 407/407/1
f 623/666/12 2/2/12 629/673/12 680/774/12
f 349/349/7 353/353/7 354/354/7 350/350/7
f 350/350/7 354/354/7 355/355/7 598/641/7 351/351/7
f 351/351/7 598/641/7 628/671/7 601/644/7 352/352/7
f 190/190/1 356/356/1 388/388/1 198/198/1
f 356/356/1 355/355/1 387/387/1 388/388/1
f 355/355/1 354/354/1 386/386/1 387/387/1
f 354/354/1 353/353/1 385/385/1 386/386/1
f 77/77/7 188/188/7 345/345/7 340/340/7
f 340/340/7 345/345/7 346/346/7 600/643/7 596/639/7
f 32/32/13 624/667/13 681/776/13 630/675/13
f 338/338/7 347/347/7 348/348/7 337/337/7
f 47/47/7 304/304/7 336/336/7 71/71/7
f 304/304/7 303/303/7 335/335/7 336/336/7
f 303/303/7 302/302/7 334/334/7 335/335/7
f 302/302/7 301/301/7 333/333/7 334/334/7
f 33/33/3 284/284/3 316/316/3 910/1120/3 916/1126/3 911/1121/3 57/57/3
f 284/284/3 283/283/3 315/315/3 316/316/3
f 283/283/3 282/282/3 314/314/3 315/315/3
f 282/282/3 281/281/3 313/313/3 314/314/3
f 54/54/5 309/309/5 341/341/5 78/78/5
f 309/309/5 310/310/5 342/342/5 602/645/5 341/341/5
f 310/310/5 311/311/5 343/343/5 606/649/5 342/342/5
f 311/311/5 312/312/5 344/344/5 343/343/5
f 56/56/1 305/305/1 337/337/1 611/654/1 593/636/1
f 305/305/1 306/306/1 338/338/1 337/337/1
f 306/306/1 307/307/1 339/339/1 338/338/1
f 307/307/1 308/308/1 340/340/1 596/639/1 339/339/1
f 38/38/5 293/293/5 325/325/5 62/62/5
f 293/293/5 294/294/5 326/326/5 325/325/5
f 294/294/5 295/295/5 327/327/5 326/326/5
f 295/295/5 296/296/5 328/328/5 327/327/5
f 40/40/1 289/289/1 321/321/1 64/64/1
f 289/289/1 290/290/1 322/322/1 321/321/1
f 290/290/1 291/291/1 323/323/1 322/322/1
f 291/291/1 292/292/1 324/324/1 323/323/1
f 45/45/3 300/300/3 332/332/3 69/69/3
f 300/300/3 299/299/3 331/331/3 332/332/3
f 299/299/3 298/298/3 330/330/3 331/331/3
f 298/298/3 297/297/3 329/329/3 330/330/3
f 35/35/7 288/288/7 320/320/7 59/59/7
f 288/288/7 287/287/7 319/319/7 320/320/7
f 287/287/7 286/286/7 318/318/7 319/319/7
f 286/286/7 285/285/7 317/317/7 318/318/7
f 185/185/7 78/78/7 341/341/7 594/637/7 357/357/7
f 357/357/7 594/637/7 597/640/7 358/358/7
f 358/358/7 597/640/7 606/649/7 343/343/7 359/359/7
f 359/359/7 343/343/7 344/344/7 360/360/7
f 69/69/5 332/332/5 333/333/5 72/72/5
f 316/316/1 315/315/1 427/427/1 428/428/1
f 331/331/5 330/330/5 335/335/5 334/334/5
f 330/330/1 329/329/1 433/433/1 434/434/1
f 161/161/3 62/62/3 325/325/3 789/933/3 817/961/3 790/934/3 373/373/3
f 373/373/3 790/934/3 802/946/3 374/374/3
f 374/374/3 802/946/3 326/326/3 327/327/3 375/375/3
f 375/375/3 327/327/3 328/328/3 791/935/3 376/376/3
f 57/57/1 911/1121/1 914/1124/1 915/1125/1 912/1122/1 913/1123/1 910/1120/1 316/316/1 317/317/1 60/60/1
f 313/313/1 320/320/1 432/432/1 425/425/1
f 315/315/1 314/314/1 319/319/1 882/1072/1 883/1073/1 884/1074/1 318/318/1
f 329/329/1 336/336/1 440/440/1 433/433/1
f 32/32/1 273/273/1 305/305/1 56/56/1
f 273/273/1 274/274/1 306/306/1 305/305/1
f 274/274/1 275/275/1 307/307/1 306/306/1
f 275/275/1 276/276/1 308/308/1 307/307/1
f 11/11/1 256/256/1 288/288/1 35/35/1
f 256/256/1 255/255/1 287/287/1 288/288/1
f 255/255/1 254/254/1 286/286/1 287/287/1
f 254/254/1 253/253/1 285/285/1 286/286/1
f 14/14/1 261/261/1 293/293/1 38/38/1
f 261/261/1 262/262/1 294/294/1 293/293/1
f 262/262/1 263/263/1 295/295/1 294/294/1
f 263/263/1 264/264/1 296/296/1 295/295/1
f 21/21/1 268/268/1 300/300/1 45/45/1
f 268/268/1 267/267/1 299/299/1 300/300/1
f 267/267/1 266/266/1 298/298/1 299/299/1
f 266/266/1 265/265/1 297/297/1 298/298/1
f 16/16/1 257/257/1 289/289/1 40/40/1
f 257/257/1 258/258/1 290/290/1 289/289/1
f 258/258/1 259/259/1 291/291/1 290/290/1
f 259/259/1 260/260/1 292/292/1 291/291/1
f 2/2/7 233/233/7 273/273/7 32/32/7
f 233/233/7 234/234/7 274/274/7 273/273/7
f 234/234/7 235/235/7 275/275/7 274/274/7
f 235/235/7 236/236/7 276/276/7 275/275/7
f 5/5/7 245/245/7 277/277/7 30/30/7
f 245/245/7 246/246/7 609/652/7 615/658/7 616/659/7 277/277/7
f 246/246/7 247/247/7 279/279/7 278/278/7 609/652/7
f 247/247/7 248/248/7 280/280/7 279/279/7
f 4/4/5 244/244/5 272/272/5 23/23/5
f 244/244/5 243/243/5 271/271/5 272/272/5
f 243/243/5 242/242/5 270/270/5 271/271/5
f 242/242/5 241/241/5 269/269/5 270/270/5
f 6/6/5 236/236/5 268/268/5 21/21/5
f 236/236/5 235/235/5 267/267/5 268/268/5
f 235/235/5 234/234/5 266/266/5 267/267/5
f 234/234/5 233/233/5 265/265/5 266/266/5
f 8/8/3 241/241/3 257/257/3 16/16/3
f 241/241/3 242/242/3 258/258/3 257/257/3
f 242/242/3 243/243/3 259/259/3 258/258/3
f 243/243/3 244/244/3 260/260/3 259/259/3
f 472/475/14 473/477/14 557/587/14 556/585/14
f 237/237/3 238/238/3 262/262/3 261/261/3
f 238/238/3 239/239/3 263/263/3 262/262/3
f 239/239/3 240/240/3 264/264/3 263/263/3
f 7/7/1 240/240/1 256/256/1 11/11/1
f 240/240/1 239/239/1 255/255/1 256/256/1
f 239/239/1 238/238/1 254/254/1 255/255/1
f 238/238/1 237/237/1 253/253/1 254/254/1
f 1/1/1 248/248/1 252/252/1 9/9/1
f 248/248/1 247/247/1 251/251/1 252/252/1
f 247/247/1 246/246/1 250/250/1 251/251/1
f 246/246/1 245/245/1 249/249/1 250/250/1
f 23/23/1 272/272/1 304/304/1 47/47/1
f 272/272/1 271/271/1 303/303/1 304/304/1
f 271/271/1 270/270/1 302/302/1 303/303/1
f 270/270/1 269/269/1 301/301/1 302/302/1
f 30/30/1 277/277/1 309/309/1 54/54/1
f 277/277/1 278/278/1 310/310/1 309/309/1
f 278/278/1 279/279/1 311/311/1 310/310/1
f 279/279/1 280/280/1 312/312/1 311/311/1
f 9/9/1 252/252/1 284/284/1 33/33/1
f 252/252/1 251/251/1 283/283/1 284/284/1
f 251/251/1 250/250/1 282/282/1 283/283/1
f 250/250/1 249/249/1 281/281/1 282/282/1
f 436/436/7 435/435/7 443/443/7 444/444/7
f 440/440/3 439/439/3 447/447/3 448/448/3
f 432/432/3 431/431/3 455/455/3 456/456/3
f 431/431/6 426/426/6 450/450/6 455/455/6
f 332/332/1 331/331/1 435/435/1 436/436/1
f 318/318/1 317/317/1 429/429/1 430/430/1
f 333/333/1 332/332/1 436/436/1 437/437/1
f 334/334/1 333/333/1 437/437/1 438/438/1
f 317/317/1 316/316/1 428/428/1 429/429/1
f 320/320/1 319/319/1 431/431/1 432/432/1
f 331/331/1 334/334/1 438/438/1 435/435/1
f 315/315/1 318/318/1 430/430/1 427/427/1
f 335/335/1 330/330/1 434/434/1 439/439/1
f 336/336/1 335/335/1 439/439/1 440/440/1
f 314/314/1 313/313/1 425/425/1 426/426/1
f 319/319/1 314/314/1 426/426/1 431/431/1
f 444/444/5 443/443/5 446/446/5 445/445/5
f 442/442/5 441/441/5 448/448/5 447/447/5
f 439/439/4 434/434/4 442/442/4 447/447/4
f 437/437/4 436/436/4 444/444/4 445/445/4
f 438/438/3 437/437/3 445/445/3 446/446/3
f 434/434/7 433/433/7 441/441/7 442/442/7
f 433/433/6 440/440/6 448/448/6 441/441/6
f 435/435/6 438/438/6 446/446/6 443/443/6
f 453/453/6 872/1062/6 876/1066/6 461/461/6
f 455/455/6 450/450/6 458/458/6 870/1060/6 463/463/6
f 429/429/6 428/428/6 452/452/6 871/1061/6 872/1062/6 453/453/6
f 428/428/7 427/427/7 451/451/7 452/452/7
f 425/425/4 432/432/4 456/456/4 449/449/4
f 427/427/4 430/430/4 454/454/4 451/451/4
f 430/430/3 429/429/3 453/453/3 454/454/3
f 426/426/7 425/425/7 449/449/7 450/450/7
f 460/460/1 459/459/1 462/462/1 461/461/1 876/1066/1 881/1071/1 879/1069/1 880/1070/1 875/1065/1
f 458/458/1 457/457/1 887/1077/1 888/1078/1 870/1060/1
f 454/454/3 453/453/3 461/461/3 462/462/3
f 450/450/7 449/449/7 457/457/7 458/458/7
f 449/449/4 456/456/4 464/464/4 457/457/4
f 451/451/4 454/454/4 462/462/4 459/459/4
f 456/456/3 455/455/3 463/463/3 464/464/3
f 452/452/7 451/451/7 459/459/7 460/460/7
f 26/26/6 478/484/6 476/482/6 465/465/6 468/469/6 27/27/6
f 468/470/6 465/466/6 3/3/6
f 478/484/15 477/483/15 485/498/15 486/500/15
f 466/467/6 467/468/6 113/113/6 114/114/6
f 473/478/3 475/481/3 3/3/3
f 473/477/3 472/475/3 237/237/3 261/261/3 14/14/3
f 467/468/16 466/467/16 481/490/16 482/491/16
f 468/469/6 475/480/6 89/89/6 117/117/6 27/27/6
f 470/473/1 472/476/1 3/3/1
f 471/474/3 469/471/3 178/178/3
f 470/472/1 465/465/1 1/1/1 9/9/1 12/12/1
f 480/487/6 479/485/6 482/492/6 481/489/6
f 486/499/6 485/497/6 484/495/6
f 481/489/6 483/493/6 480/487/6
f 466/467/17 474/479/17 483/494/17 481/490/17
f 474/479/3 82/82/3 480/488/3 483/494/3
f 476/482/18 478/484/18 486/500/18 484/496/18
f 82/82/3 81/81/3 479/486/3 480/488/3
f 477/483/19 476/482/19 484/496/19 485/498/19
f 505/519/20 506/520/20 519/533/20 518/532/20
f 491/505/1 490/504/1 183/183/1 223/223/1
f 183/183/1 490/504/1 502/516/1 501/515/1
f 493/507/21 489/503/21 504/518/21 506/520/21
f 494/508/1 496/510/1 497/511/1 495/509/1
f 495/509/1 497/511/1 490/504/1 491/505/1
f 498/512/22 497/511/22 510/524/22 511/525/22
f 492/506/23 493/507/23 506/520/23 505/519/23
f 512/526/24 507/521/24 520/534/24 525/539/24
f 503/517/25 505/519/25 518/532/25 516/530/25
f 508/522/26 512/526/26 525/539/26 521/535/26
f 489/503/1 488/502/1 503/517/1 504/518/1
f 496/510/27 498/512/27 511/525/27 509/523/27
f 495/509/28 499/513/28 512/526/28 508/522/28
f 487/501/7 183/183/7 501/515/7 500/514/7
f 494/508/5 495/509/5 508/522/5 507/521/5
f 499/513/29 494/508/29 507/521/29 512/526/29
f 497/511/1 496/510/1 509/523/1 510/524/1
f 490/504/30 487/501/30 500/514/30 502/516/30
f 488/502/31 492/506/31 505/519/31 503/517/31
f 525/539/29 520/534/29 533/547/29 538/552/29
f 516/530/31 518/532/31 531/545/31 529/543/31
f 521/535/28 525/539/28 538/552/28 534/548/28
f 515/529/30 513/527/30 526/540/30 528/542/30
f 506/520/32 504/518/32 517/531/32 519/533/32
f 507/521/1 508/522/1 521/535/1 520/534/1
f 500/514/3 501/515/3 514/528/3 513/527/3
f 510/524/5 509/523/5 522/536/5 523/537/5
f 501/515/5 502/516/5 515/529/5 514/528/5
f 511/525/33 510/524/33 523/537/33 524/538/33
f 504/518/5 503/517/5 516/530/5 517/531/5
f 509/523/34 511/525/34 524/538/34 522/536/34
f 502/516/35 500/514/35 513/527/35 515/529/35
f 527/541/5 528/542/5 541/558/5 540/555/5
f 536/550/5 535/549/5 548/572/5 549/574/5
f 526/540/3 527/541/3 540/555/3 539/554/3
f 533/547/1 534/548/1 547/570/1 546/568/1
f 518/532/23 519/533/23 532/546/23 531/545/23
f 519/533/21 517/531/21 530/544/21 532/546/21
f 520/534/5 521/535/5 534/548/5 533/547/5
f 513/527/7 514/528/7 527/541/7 526/540/7
f 523/537/1 522/536/1 535/549/1 536/550/1
f 514/528/1 515/529/1 528/542/1 527/541/1
f 524/538/22 523/537/22 536/550/22 537/551/22
f 517/531/1 516/530/1 529/543/1 530/544/1
f 522/536/27 524/538/27 537/551/27 535/549/27
f 541/557/6 539/553/6 540/556/6
f 542/559/6 544/563/6 545/565/6 543/561/6
f 548/571/6 550/575/6 549/573/6
f 547/569/6 551/577/6 546/567/6
f 537/551/33 536/550/33 549/574/33 550/576/33
f 530/544/5 529/543/5 542/560/5 543/562/5
f 535/549/34 537/551/34 550/576/34 548/572/34
f 528/542/35 526/540/35 539/554/35 541/558/35
f 534/548/26 538/552/26 551/578/26 547/570/26
f 529/543/25 531/545/25 544/564/25 542/560/25
f 538/552/24 533/547/24 546/568/24 551/578/24
f 531/545/20 532/546/20 545/566/20 544/564/20
f 532/546/32 530/544/32 543/562/32 545/566/32
f 553/581/1 552/580/1 554/583/1
f 470/473/36 3/3/36 553/581/36 554/583/36
f 3/3/4 465/466/4 552/580/4 553/581/4
f 555/584/3 556/586/3 557/588/3
f 473/478/37 3/3/37 555/584/37 557/588/37
f 3/3/5 472/476/5 556/586/5 555/584/5
f 558/589/6 560/593/6 559/591/6
f 3/3/7 475/481/7 560/593/7 558/589/7
f 468/470/38 3/3/38 558/589/38 559/591/38
f 572/605/1 573/606/1 579/618/1 578/616/1
f 567/600/39 566/599/39 571/604/39 573/606/39
f 28/28/6 581/620/6 580/619/6 564/597/6 566/599/6 567/600/6 565/598/6 25/25/6
f 561/594/1 562/595/1 569/602/1 568/601/1
f 568/601/1 569/602/1 575/610/1 574/608/1
f 566/599/40 565/598/40 572/605/40 571/604/40
f 563/596/41 561/594/41 568/601/41 570/603/41
f 565/598/42 567/600/42 573/606/42 572/605/42
f 562/595/43 563/596/43 570/603/43 569/602/43
f 575/609/6 576/611/6 574/607/6
f 578/615/6 579/617/6 577/613/6
f 571/604/1 572/605/1 578/616/1 577/614/1
f 570/603/1 568/601/1 574/608/1 576/612/1
f 573/606/1 571/604/1 577/614/1 579/618/1
f 569/602/1 570/603/1 576/612/1 575/610/1
f 585/625/6 587/629/6 586/627/6 584/623/6
f 583/622/44 582/621/44 586/628/44 587/630/44
f 580/619/45 581/620/45 585/626/45 584/624/45
f 581/620/46 583/622/46 587/630/46 585/626/46
f 582/621/47 580/619/47 584/624/47 586/628/47
f 607/650/1 410/410/1 647/709/1 668/751/1
f 624/667/48 623/666/48 680/774/48 681/776/48
f 593/636/49 611/654/49 669/753/49 661/737/49
f 95/95/5 605/648/5 635/685/5 667/749/5
f 595/638/7 617/660/7 603/646/7 423/423/7 424/424/7 420/420/7
f 622/665/50 338/338/50 639/693/50 679/772/50
f 349/349/7 620/663/7 618/661/7 619/662/7 608/651/7 186/186/7 353/353/7
f 600/643/51 622/665/51 679/772/51 654/723/51
f 609/652/4 278/278/4 638/691/4 655/725/4
f 602/645/7 594/637/7 341/341/7
f 338/338/7 622/665/7 600/643/7 346/346/7 347/347/7
f 602/645/5 342/342/5 642/699/5 641/697/5
f 597/640/52 594/637/52 678/771/52 664/743/52
f 612/655/7 625/668/7 613/656/7
f 603/646/7 599/642/7 422/422/7 423/423/7
f 418/418/6 599/642/6 650/714/6 651/717/6
f 607/650/7 626/669/7 614/657/7 414/414/7 415/415/7 411/411/7
f 419/419/1 613/656/1 648/711/1 649/713/1
f 621/664/53 123/123/53 636/687/53 677/769/53
f 606/649/7 597/640/7 342/342/7
f 651/716/7 650/715/7 652/718/7 649/712/7 648/710/7 682/778/7 670/754/7
f 649/712/7 652/718/7 673/760/7 662/738/7
f 647/708/7 653/720/7 683/780/7 668/750/7
f 634/682/7 633/680/7 675/764/7 674/762/7 676/766/7 643/700/7
f 640/694/7 654/722/7 679/773/7 639/692/7
f 656/726/7 658/730/7 657/728/7
f 657/728/7 660/734/7 659/732/7 656/726/7
f 637/688/7 672/758/7 671/756/7 655/724/7 638/690/7
f 663/740/7 654/722/7 640/694/7
f 646/706/7 653/720/7 647/708/7
f 635/684/7 677/768/7 636/686/7
f 664/742/7 678/770/7 641/696/7 642/698/7
f 661/736/1 669/752/1 632/678/1
f 630/674/7 681/777/7 680/775/7 629/672/7
f 669/752/7 631/676/7 632/678/7
f 635/684/7 684/782/7 667/748/7
f 666/746/7 685/784/7 665/744/7 644/702/7 645/704/7
f 604/647/4 80/80/4 632/679/4 631/677/4
f 187/187/6 608/651/6 633/681/6 634/683/6
f 123/123/1 605/648/1 635/685/1 636/687/1
f 613/656/54 625/668/54 682/779/54 648/711/54
f 612/655/1 418/418/1 651/717/1 670/755/1
f 611/654/55 604/647/55 631/677/55 669/753/55
f 614/657/56 626/669/56 683/781/56 653/721/56
f 590/633/57 589/632/57 657/729/57 658/731/57
f 626/669/58 607/650/58 668/751/58 683/781/58
f 616/659/59 615/658/59 671/757/59 672/759/59
f 588/631/60 590/633/60 658/731/60 656/727/60
f 605/648/61 627/670/61 684/783/61 635/685/61
f 615/658/62 609/652/62 655/725/62 671/757/62
f 591/634/63 588/631/63 656/727/63 659/733/63
f 627/670/64 95/95/64 667/749/64 684/783/64
f 277/277/65 616/659/65 672/759/65 637/689/65
f 592/635/66 591/634/66 659/733/66 660/735/66
f 355/355/5 356/356/5 645/705/5 644/703/5
f 2/2/67 32/32/67 630/675/67 629/673/67
f 628/671/68 598/641/68 665/745/68 685/785/68
f 596/639/69 600/643/69 654/723/69 663/741/69
f 278/278/1 277/277/1 637/689/1 638/691/1
f 589/632/70 592/635/70 660/735/70 657/729/70
f 601/644/71 628/671/71 685/785/71 666/747/71
f 603/646/72 617/660/72 673/761/72 652/719/72
f 80/80/4 593/636/4 661/737/4 632/679/4
f 410/410/1 610/653/1 646/707/1 647/709/1
f 617/660/73 595/638/73 662/739/73 673/761/73
f 610/653/74 614/657/74 653/721/74 646/707/74
f 595/638/1 419/419/1 649/713/1 662/739/1
f 619/662/75 618/661/75 674/763/75 675/765/75
f 339/339/1 596/639/1 663/741/1 640/695/1
f 608/651/76 619/662/76 675/765/76 633/681/76
f 342/342/4 597/640/4 664/743/4 642/699/4
f 618/661/77 620/663/77 676/767/77 674/763/77
f 598/641/6 355/355/6 644/703/6 665/745/6
f 620/663/78 349/349/78 643/701/78 676/767/78
f 605/648/79 621/664/79 677/769/79 635/685/79
f 338/338/1 339/339/1 640/695/1 639/693/1
f 594/637/80 602/645/80 641/697/80 678/771/80
f 356/356/4 601/644/4 666/747/4 645/705/4
f 725/829/4 733/845/4 734/847/4 726/831/4
f 707/807/81 695/795/81 730/840/81 739/858/81
f 719/819/82 718/818/82 747/874/82 748/876/82
f 699/799/83 691/791/83 726/832/83 734/848/83
f 171/171/1 174/174/1 751/880/1 750/879/1
f 18/18/4 706/806/4 705/805/4 704/804/4 703/803/4 19/19/4
f 694/794/84 708/808/84 740/860/84 729/838/84
f 687/787/1 686/786/1 721/822/1 722/824/1
f 709/809/4 710/810/4 711/811/4 176/176/4 68/68/4 762/896/4 761/895/4
f 688/788/1 694/794/1 695/795/1 689/789/1
f 689/789/1 695/795/1 173/173/1 213/213/1
f 712/812/85 717/817/85 746/872/85 741/862/85
f 215/215/4 717/817/4 712/812/4 713/813/4 210/210/4
f 698/798/86 699/799/86 734/848/86 733/846/86
f 727/833/4 732/843/4 728/835/4
f 724/827/4 731/841/4 723/825/4
f 736/851/4 737/853/4 738/855/4 735/849/4
f 729/837/4 740/859/4 739/857/4 730/839/4
f 721/821/4 748/875/4 747/873/4 749/877/4 722/823/4
f 741/861/4 746/871/4 745/869/4 744/867/4 743/865/4 742/863/4
f 690/790/87 698/798/87 733/846/87 725/830/87
f 686/786/88 719/819/88 748/876/88 721/822/88
f 688/788/5 689/789/5 724/828/5 723/826/5
f 720/820/89 687/787/89 722/824/89 749/878/89
f 718/818/90 720/820/90 749/878/90 747/874/90
f 691/791/1 690/790/1 725/830/1 726/832/1
f 693/793/1 692/792/1 727/834/1 728/836/1
f 703/803/91 704/804/91 736/852/91 735/850/91
f 704/804/92 705/805/92 737/854/92 736/852/92
f 695/795/1 694/794/1 729/838/1 730/840/1
f 713/813/93 712/812/93 741/862/93 742/864/93
f 705/805/94 706/806/94 738/856/94 737/854/94
f 696/796/95 688/788/95 723/826/95 731/842/95
f 714/814/96 713/813/96 742/864/96 743/866/96
f 706/806/97 703/803/97 735/850/97 738/856/97
f 689/789/81 696/796/81 731/842/81 724/828/81
f 715/815/98 714/814/98 743/866/98 744/868/98
f 692/792/99 697/797/99 732/844/99 727/834/99
f 716/816/100 715/815/100 744/868/100 745/870/100
f 697/797/101 693/793/101 728/836/101 732/844/101
f 717/817/102 716/816/102 745/870/102 746/872/102
f 708/808/103 707/807/103 739/858/103 740/860/103
f 752/881/104 750/879/104 755/885/104 757/889/104
f 700/800/1 171/171/1 750/879/1 752/881/1
f 701/801/1 700/800/1 752/881/1 753/882/1
f 174/174/1 702/802/1 754/883/1 751/880/1
f 702/802/1 701/801/1 753/882/1 754/883/1
f 756/886/4 759/892/4 758/890/4 757/888/4 755/884/4
f 753/882/105 752/881/105 757/889/105 758/891/105
f 751/880/106 754/883/106 759/893/106 756/887/106
f 754/883/107 753/882/107 758/891/107 759/893/107
f 750/879/1 751/880/1 756/887/1 755/885/1
f 770/904/108 769/903/108 779/914/108 780/916/108
f 761/895/4 762/896/4 65/65/4
f 761/895/4 764/898/4 765/899/4 760/894/4 169/169/4 176/176/4 711/811/4 710/810/4 709/809/4
f 760/894/1 765/899/1 775/909/1 773/907/1
f 762/896/1 766/900/1 776/910/1 769/903/1
f 778/912/109 777/911/109 787/930/109 788/932/109
f 774/908/110 772/906/110 782/920/110 784/924/110
f 764/898/1 761/895/1 772/906/1 774/908/1
f 65/65/1 762/896/1 769/903/1 770/904/1
f 768/902/1 767/901/1 777/911/1 778/912/1
f 766/900/1 763/897/1 771/905/1 776/910/1
f 761/895/1 65/65/1 770/904/1 772/906/1
f 765/899/1 764/898/1 774/908/1 775/909/1
f 763/897/1 768/902/1 778/912/1 771/905/1
f 780/915/4 783/921/4 785/925/4 784/923/4 782/919/4
f 779/913/1 786/927/1 781/917/1 780/915/1
f 781/917/7 788/931/7 787/929/7 783/921/7 780/915/7
f 776/910/111 771/905/111 781/918/111 786/928/111
f 775/909/112 774/908/112 784/924/112 785/926/112
f 771/905/113 778/912/113 788/932/113 781/918/113
f 769/903/114 776/910/114 786/928/114 779/914/114
f 773/907/115 775/909/115 785/926/115 783/922/115
f 772/906/116 770/904/116 780/916/116 782/920/116
f 777/911/117 773/907/117 783/922/117 787/930/117
f 807/951/118 806/950/118 850/1020/118 851/1023/118
f 361/361/5 362/362/5 833/987/5 832/985/5
f 796/940/119 814/958/119 859/1038/119 843/1007/119
f 809/953/3 789/933/3 325/325/3 326/326/3 802/946/3
f 821/965/120 799/943/120 845/1011/120 867/1055/120
f 806/950/121 791/935/121 839/998/121 850/1020/121
f 813/957/3 814/958/3 796/940/3 323/323/3 324/324/3
f 88/88/1 104/104/1 826/973/1 831/983/1
f 805/949/3 815/959/3 803/947/3 406/406/3 407/407/3 403/403/3
f 814/958/122 813/957/122 858/1037/122 859/1038/122
f 798/942/123 820/964/123 866/1052/123 844/1009/123
f 805/949/1 804/948/1 848/1017/1 849/1019/1
f 793/937/124 812/956/124 857/1035/124 841/1003/124
f 371/371/3 820/964/3 798/942/3 370/370/3
f 791/935/4 328/328/4 828/977/4 839/998/4
f 818/962/125 819/963/125 865/1051/125 864/1049/125
f 836/992/3 832/984/3 833/986/3 842/1004/3 843/1006/3 859/1039/3 858/1036/3
f 830/980/3 851/1022/3 850/1021/3 839/999/3 828/976/3 829/978/3
f 827/974/3 852/1024/3 831/982/3 826/972/3 825/970/3
f 853/1026/3 838/996/3 837/994/3 854/1028/3
f 845/1010/3 855/1030/3 844/1008/3
f 841/1002/3 857/1034/3 856/1032/3 840/1000/3
f 848/1016/3 861/1042/3 860/1040/3 849/1018/3
f 824/968/3 862/1044/3 827/974/3 825/970/3
f 838/996/3 863/1046/3 837/994/3
f 840/1000/3 864/1048/3 865/1050/3 841/1002/3
f 835/990/3 867/1054/3 845/1010/3 844/1008/3 866/1053/3 834/988/3
f 842/1004/3 868/1056/3 843/1006/3
f 846/1012/3 869/1058/3 847/1014/3
f 371/371/6 367/367/6 835/991/6 834/989/6
f 813/957/126 324/324/126 836/993/126 858/1037/126
f 794/938/127 807/951/127 851/1023/127 830/981/127
f 367/367/128 821/965/128 867/1055/128 835/991/128
f 362/362/6 795/939/6 842/1005/6 833/987/6
f 803/947/129 815/959/129 860/1041/129 861/1043/129
f 797/941/130 808/952/130 852/1025/130 827/975/130
f 795/939/131 822/966/131 868/1057/131 842/1005/131
f 324/324/4 361/361/4 832/985/4 836/993/4
f 804/948/132 803/947/132 861/1043/132 848/1017/132
f 808/952/133 88/88/133 831/983/133 852/1025/133
f 822/966/134 796/940/134 843/1007/134 868/1057/134
f 815/959/135 805/949/135 849/1019/135 860/1041/135
f 802/946/136 790/934/136 838/997/136 853/1027/136
f 823/967/137 801/945/137 847/1015/137 869/1059/137
f 264/264/138 816/960/138 862/1045/138 824/969/138
f 809/953/139 802/946/139 853/1027/139 854/1029/139
f 800/944/140 823/967/140 869/1059/140 846/1013/140
f 816/960/141 797/941/141 827/975/141 862/1045/141
f 789/933/142 809/953/142 854/1029/142 837/995/142
f 817/961/143 789/933/143 837/995/143 863/1047/143
f 810/954/144 798/942/144 844/1009/144 855/1031/144
f 801/945/1 800/944/1 846/1013/1 847/1015/1
f 328/328/5 63/63/5 829/979/5 828/977/5
f 790/934/145 817/961/145 863/1047/145 838/997/145
f 799/943/146 810/954/146 855/1031/146 845/1011/146
f 63/63/6 794/938/6 830/981/6 829/979/6
f 792/936/147 818/962/147 864/1049/147 840/1001/147
f 811/955/148 792/936/148 840/1001/148 856/1033/148
f 15/15/1 264/264/1 824/969/1 825/971/1
f 819/963/149 793/937/149 841/1003/149 865/1051/149
f 812/956/150 811/955/150 856/1033/150 857/1035/150
f 104/104/4 15/15/4 825/971/4 826/973/4
f 891/1082/1 897/1094/1 896/1092/1 890/1080/1
f 11/11/151 878/1068/151 897/1095/151 891/1083/151
f 876/1066/6 872/1062/6 871/1061/6 875/1065/6
f 875/1065/6 871/1061/6 452/452/6 460/460/6
f 883/1073/152 882/1072/152 901/1103/152 902/1105/152
f 318/318/1 884/1074/1 885/1075/1 886/1076/1 882/1072/1 319/319/1
f 888/1078/153 887/1077/153 906/1113/153 907/1115/153
f 870/1060/1 887/1077/1 457/457/1 464/464/1 463/463/1
f 877/1067/154 7/7/154 890/1081/154 896/1093/154
f 879/1069/155 881/1071/155 900/1101/155 898/1097/155
f 894/1088/1 899/1098/1 898/1096/1 900/1100/1 895/1090/1
f 905/1110/1 904/1108/1 903/1106/1 902/1104/1 901/1102/1
f 908/1116/1 907/1114/1 906/1112/1
f 892/1084/1 909/1118/1 893/1086/1
f 870/1060/156 888/1078/156 907/1115/156 908/1117/156
f 7/7/157 11/11/157 891/1083/157 890/1081/157
f 884/1074/158 883/1073/158 902/1105/158 903/1107/158
f 887/1077/159 870/1060/159 908/1117/159 906/1113/159
f 885/1075/160 884/1074/160 903/1107/160 904/1109/160
f 874/1064/6 873/1063/6 892/1085/6 893/1087/6
f 886/1076/161 885/1075/161 904/1109/161 905/1111/161
f 880/1070/162 879/1069/162 898/1097/162 899/1099/162
f 889/1079/163 874/1064/163 893/1087/163 909/1119/163
f 882/1072/164 886/1076/164 905/1111/164 901/1103/164
f 875/1065/165 880/1070/165 899/1099/165 894/1089/165
f 873/1063/166 889/1079/166 909/1119/166 892/1085/166
f 876/1066/4 875/1065/4 894/1089/4 895/1091/4
f 881/1071/167 876/1066/167 895/1091/167 900/1101/167
f 878/1068/168 877/1067/168 896/1093/168 897/1095/168
f 917/1127/1 920/1133/1 919/1131/1 922/1137/1 921/1135/1 918/1129/1
f 911/1121/3 910/1120/3 917/1128/3 918/1130/3
f 911/1121/169 916/1126/169 925/1144/169 924/1142/169
f 912/1122/170 915/1125/170 922/1138/170 919/1132/170
f 914/1124/171 911/1121/171 918/1130/171 921/1136/171
f 913/1123/172 912/1122/172 919/1132/172 920/1134/172
f 915/1125/173 914/1124/173 921/1136/173 922/1138/173
f 910/1120/174 913/1123/174 920/1134/174 917/1128/174
f 924/1141/3 925/1143/3 923/1139/3
f 916/1126/175 910/1120/175 923/1140/175 925/1144/175
f 910/1120/1 911/1121/1 924/1142/1 923/1140/1
